<svg width="100" height="35" viewBox="0 0 100 35" fill="none" xmlns="http://www.w3.org/2000/svg">
<path d="M96.7887 6.08815C95.9412 6.08815 95.2276 5.7908 94.6478 5.19611C94.068 4.60142 93.778 3.88036 93.778 3.03292C93.778 2.18549 94.068 1.47186 94.6478 0.892037C95.2276 0.297346 95.9412 0 96.7887 0C97.651 0 98.372 0.297346 98.9519 0.892037C99.5465 1.47186 99.8439 2.18549 99.8439 3.03292C99.8439 3.88036 99.5465 4.60142 98.9519 5.19611C98.372 5.7908 97.651 6.08815 96.7887 6.08815ZM100 33.719H93.5996V11.4181H100V33.719Z" fill="#005BAA"/>
<path d="M71.6769 33.719H66.0571V0.267611H72.4575V13.9604C73.3941 13.0237 74.4794 12.2952 75.7134 11.7749C76.9623 11.2397 78.3152 10.9721 79.7722 10.9721C81.8239 10.9721 83.6451 11.4775 85.2359 12.4885C86.8267 13.4846 88.083 14.8598 89.0048 16.6142C89.9265 18.3537 90.3874 20.3384 90.3874 22.5685C90.3874 24.7838 89.9265 26.7685 89.0048 28.5229C88.083 30.2772 86.8267 31.6599 85.2359 32.6708C83.6451 33.667 81.8239 34.165 79.7722 34.165C78.1962 34.165 76.7393 33.8602 75.4012 33.2507C74.078 32.6262 72.9407 31.7714 71.9892 30.6861L71.6769 33.719ZM78.1442 28.4337C79.2295 28.4337 80.1959 28.1809 81.0433 27.6754C81.9056 27.17 82.5821 26.4712 83.0727 25.5792C83.5782 24.6871 83.8309 23.6761 83.8309 22.5462C83.8309 21.4312 83.5782 20.4351 83.0727 19.5579C82.5821 18.6659 81.9056 17.9671 81.0433 17.4616C80.1959 16.9561 79.2295 16.7034 78.1442 16.7034C77.1184 16.7034 76.1817 16.9338 75.3343 17.3947C74.5017 17.8556 73.8327 18.4875 73.3272 19.2903C72.8217 20.0931 72.5318 21.0149 72.4575 22.0556V23.0368C72.5318 24.0776 72.8217 25.0068 73.3272 25.8245C73.8327 26.6273 74.5017 27.2666 75.3343 27.7423C76.1669 28.2032 77.1035 28.4337 78.1442 28.4337Z" fill="#005BAA"/>
<path d="M50.9808 34.165C48.6912 34.165 46.6395 33.667 44.8257 32.6708C43.0119 31.6599 41.5847 30.2846 40.544 28.5452C39.5181 26.7908 39.0052 24.7986 39.0052 22.5685C39.0052 20.3533 39.5181 18.376 40.544 16.6365C41.5847 14.8821 43.0119 13.4995 44.8257 12.4885C46.6395 11.4775 48.6912 10.9721 50.9808 10.9721C53.2704 10.9721 55.3072 11.4775 57.0912 12.4885C58.8902 13.4995 60.3026 14.8821 61.3284 16.6365C62.3691 18.376 62.8895 20.3533 62.8895 22.5685C62.8895 24.7986 62.3691 26.7908 61.3284 28.5452C60.3026 30.2846 58.8902 31.6599 57.0912 32.6708C55.3072 33.667 53.2704 34.165 50.9808 34.165ZM50.9585 28.4337C51.9843 28.4337 52.8987 28.1809 53.7015 27.6754C54.5192 27.1551 55.1585 26.4563 55.6194 25.5792C56.0951 24.6871 56.333 23.6761 56.333 22.5462C56.333 21.4312 56.0951 20.4351 55.6194 19.5579C55.1585 18.6807 54.5192 17.9894 53.7015 17.4839C52.8987 16.9636 51.9843 16.7034 50.9585 16.7034C49.9178 16.7034 48.9886 16.9636 48.1709 17.4839C47.368 17.9894 46.7287 18.6807 46.253 19.5579C45.7921 20.4351 45.5617 21.4312 45.5617 22.5462C45.5617 23.6761 45.7921 24.6871 46.253 25.5792C46.7287 26.4563 47.368 27.1551 48.1709 27.6754C48.9886 28.1809 49.9178 28.4337 50.9585 28.4337Z" fill="#005BAA"/>
<path d="M36.2836 33.719H29.8832V22.5239C29.8832 20.6655 29.519 19.2308 28.7905 18.2198C28.062 17.2089 27.0287 16.7034 25.6907 16.7034C24.3229 16.7034 23.2524 17.2163 22.4793 18.2421C21.7211 19.268 21.342 20.6953 21.342 22.5239V33.719H14.9416V22.5239C14.9416 20.6655 14.5774 19.2308 13.8489 18.2198C13.1204 17.2089 12.0797 16.7034 10.7267 16.7034C9.37382 16.7034 8.31081 17.2163 7.53771 18.2421C6.77948 19.268 6.40036 20.6953 6.40036 22.5239V33.719H0V11.4181H5.10691L5.32992 15.0977C6.07328 13.7448 7.06939 12.719 8.31824 12.0202C9.58196 11.3214 11.0464 10.9721 12.7115 10.9721C14.451 10.9721 15.9526 11.3363 17.2163 12.0648C18.48 12.7933 19.4538 13.8414 20.1377 15.2092C20.896 13.8266 21.8995 12.7784 23.1484 12.0648C24.4121 11.3363 25.9062 10.9721 27.6308 10.9721C30.3515 10.9721 32.4701 11.8418 33.9866 13.5813C35.5179 15.3059 36.2836 17.7218 36.2836 20.8291V33.719Z" fill="#005BAA"/>
</svg>
