<svg width="34" height="34" viewBox="0 0 34 34" fill="none" xmlns="http://www.w3.org/2000/svg">
<rect width="34" height="34" rx="4" fill="white"/>
<path d="M20 19C17.33 19 12 20.33 12 23V25H28V23C28 20.33 22.67 19 20 19ZM11 15V12H9V15H6V17H9V20H11V17H14V15M20 17C21.0609 17 22.0783 16.5786 22.8284 15.8284C23.5786 15.0783 24 14.0609 24 13C24 11.9391 23.5786 10.9217 22.8284 10.1716C22.0783 9.42143 21.0609 9 20 9C18.9391 9 17.9217 9.42143 17.1716 10.1716C16.4214 10.9217 16 11.9391 16 13C16 14.0609 16.4214 15.0783 17.1716 15.8284C17.9217 16.5786 18.9391 17 20 17Z" fill="#005BAA"/>
</svg>
