<svg width="34" height="34" viewBox="0 0 34 34" fill="none" xmlns="http://www.w3.org/2000/svg">
<rect width="34" height="34" rx="4" fill="white"/>
<path d="M17.1687 16.7673C19.5897 16.7673 21.5523 14.8047 21.5523 12.3836C21.5523 9.96263 19.5897 8 17.1687 8C14.7477 8 12.785 9.96263 12.785 12.3836C12.785 14.8047 14.7477 16.7673 17.1687 16.7673Z" fill="#005BAA"/>
<path d="M13.3129 22.8696C13.3263 22.5135 13.4449 22.1693 13.6539 21.8806C13.8628 21.5918 14.1527 21.3716 14.4869 21.2475C14.821 21.1235 15.1844 21.1014 15.5311 21.1839C15.8779 21.2663 16.1924 21.4498 16.4349 21.711L18.9196 24.3824L23.3225 19.4709C21.5037 18.2588 19.3606 17.626 17.1751 17.6556C15.6591 17.6173 14.1531 17.9115 12.763 18.5176C11.3729 19.1237 10.1324 20.0269 9.12877 21.1638C9.04387 21.277 8.99863 21.415 9.00003 21.5565V25.0261C8.99988 25.3609 9.1302 25.6827 9.36335 25.923C9.5965 26.1634 9.91412 26.3034 10.2488 26.3135H15.7654L13.7892 24.1893C13.6259 24.0121 13.4997 23.8041 13.4179 23.5775C13.3361 23.3509 13.3004 23.1102 13.3129 22.8696Z" fill="#005BAA"/>
<path d="M24.1014 26.3135C24.4361 26.3034 24.7537 26.1634 24.9869 25.923C25.22 25.6827 25.3504 25.3609 25.3502 25.0261V22.6057L22.048 26.3135H24.1014Z" fill="#005BAA"/>
<path d="M27.3264 17.7007C27.2632 17.6436 27.1893 17.5996 27.109 17.5713C27.0287 17.5429 26.9436 17.5308 26.8586 17.5356C26.7736 17.5404 26.6904 17.562 26.6138 17.5992C26.5372 17.6363 26.4687 17.6883 26.4123 17.7522L18.9324 26.1204L15.5852 22.522C15.5302 22.4578 15.4632 22.405 15.3878 22.3667C15.3125 22.3283 15.2303 22.3052 15.146 22.2987C15.0617 22.2921 14.977 22.3022 14.8966 22.3284C14.8162 22.3545 14.7418 22.3963 14.6775 22.4512C14.6172 22.5111 14.5693 22.5823 14.5366 22.6607C14.504 22.7392 14.4871 22.8233 14.4871 22.9083C14.4871 22.9932 14.504 23.0774 14.5366 23.1558C14.5693 23.2343 14.6172 23.3055 14.6775 23.3653L18.9775 28L27.3715 18.589C27.4797 18.4636 27.5354 18.3013 27.527 18.1358C27.5186 17.9703 27.4468 17.8145 27.3264 17.7007Z" fill="#005BAA"/>
</svg>
