<svg width="44" height="45" viewBox="0 0 44 45" fill="#005baa" xmlns="http://www.w3.org/2000/svg">
<g clip-path="url(#clip0_1716_441)">
<path d="M21.9999 3.24658C11.2199 3.24658 2.44434 10.9221 2.44434 20.3577C2.44434 29.7932 11.2199 37.4688 21.9999 37.4688C24.0167 37.4665 26.0237 37.1868 27.9643 36.6377L34.7232 40.9399C34.9077 41.0583 35.1207 41.1249 35.3398 41.1327C35.5589 41.1405 35.776 41.0892 35.9685 40.9842C36.1609 40.8792 36.3216 40.7244 36.4337 40.536C36.5458 40.3476 36.6051 40.1325 36.6054 39.9132V31.6877C38.1347 30.2206 39.3551 28.4625 40.1947 26.5167C41.0343 24.5709 41.4762 22.4768 41.4943 20.3577C41.5554 10.9221 32.7799 3.24658 21.9999 3.24658ZM20.6921 11.3499C20.672 11.1122 20.7015 10.873 20.7787 10.6473C20.8559 10.4216 20.9791 10.2143 21.1405 10.0387C21.3019 9.8631 21.4981 9.72291 21.7165 9.627C21.9349 9.5311 22.1708 9.48158 22.4093 9.48158C22.6479 9.48158 22.8838 9.5311 23.1022 9.627C23.3206 9.72291 23.5167 9.8631 23.6781 10.0387C23.8396 10.2143 23.9628 10.4216 24.04 10.6473C24.1171 10.873 24.1466 11.1122 24.1266 11.3499V23.291C24.1466 23.5287 24.1171 23.768 24.04 23.9937C23.9628 24.2194 23.8396 24.4266 23.6781 24.6022C23.5167 24.7778 23.3206 24.918 23.1022 25.0139C22.8838 25.1098 22.6479 25.1594 22.4093 25.1594C22.1708 25.1594 21.9349 25.1098 21.7165 25.0139C21.4981 24.918 21.3019 24.7778 21.1405 24.6022C20.9791 24.4266 20.8559 24.2194 20.7787 23.9937C20.7015 23.768 20.672 23.5287 20.6921 23.291V11.3499ZM22.4154 32.5555C21.9634 32.5555 21.5215 32.4214 21.1457 32.1703C20.7698 31.9191 20.4769 31.5622 20.3039 31.1446C20.1309 30.7269 20.0856 30.2674 20.1738 29.824C20.262 29.3807 20.4797 28.9734 20.7993 28.6538C21.119 28.3341 21.5262 28.1165 21.9696 28.0283C22.4129 27.9401 22.8725 27.9853 23.2901 28.1583C23.7077 28.3313 24.0647 28.6243 24.3158 29.0001C24.567 29.376 24.701 29.8179 24.701 30.2699C24.6978 30.874 24.4555 31.4522 24.0273 31.8782C23.599 32.3041 23.0195 32.5433 22.4154 32.5432V32.5555Z" fill="#005BAA"/>
</g>
<defs>
<clipPath id="clip0_1716_441">
<rect width="44" height="44" fill="#005baa" transform="translate(0 0.190918)"/>
</clipPath>
</defs>
</svg>
