<svg width="20" height="20" viewBox="0 0 20 20" fill="none" xmlns="http://www.w3.org/2000/svg">
<path d="M11.666 2.56117C12.4597 3.01946 13.1505 3.63649 13.695 4.37373C14.2395 5.11096 14.6262 5.95256 14.8309 6.84596C15.0355 7.73936 15.0538 8.66536 14.8845 9.56612C14.7152 10.4669 14.3619 11.3231 13.8468 12.0812L17.9668 16.2003C18.1962 16.4264 18.3295 16.7322 18.3389 17.0541C18.3484 17.376 18.2332 17.6891 18.0175 17.9282C17.8017 18.1672 17.502 18.3138 17.1808 18.3374C16.8597 18.3609 16.5418 18.2596 16.2935 18.0545L16.1985 17.9687L12.0793 13.8487C11.0938 14.5181 9.94695 14.9112 8.75801 14.9871C7.56907 15.0629 6.38152 14.8188 5.31892 14.2801C4.25631 13.7414 3.35747 12.9278 2.71593 11.9239C2.07438 10.9201 1.71356 9.76261 1.67102 8.57201L1.66602 8.33451L1.67018 8.09701C1.71118 6.94763 2.04882 5.82841 2.6503 4.84812C3.25178 3.86783 4.09664 3.05982 5.10276 2.50261C6.10887 1.94541 7.24203 1.65797 8.39209 1.66823C9.54215 1.6785 10.67 1.98611 11.666 2.56117ZM11.4218 6.07784C11.2656 5.92161 11.0537 5.83385 10.8327 5.83385C10.6117 5.83385 10.3998 5.92161 10.2435 6.07784L7.49935 8.82284L6.42185 7.74534L6.34352 7.67617C6.17602 7.54666 5.96551 7.48576 5.75474 7.50584C5.54398 7.52592 5.34875 7.62547 5.20872 7.78427C5.06869 7.94308 4.99436 8.14923 5.00083 8.36085C5.00729 8.57248 5.09406 8.77371 5.24352 8.92367L6.91018 10.5903L6.98852 10.6595C7.14885 10.7839 7.34906 10.8455 7.55158 10.8327C7.7541 10.82 7.94502 10.7338 8.08852 10.5903L11.4218 7.25701L11.491 7.17867C11.6154 7.01834 11.677 6.81813 11.6643 6.61561C11.6515 6.41308 11.5653 6.22217 11.4218 6.07867V6.07784Z" fill="#7B68EE"/>
</svg>
