<svg width="34" height="34" viewBox="0 0 34 34" fill="none" xmlns="http://www.w3.org/2000/svg">
<rect width="34" height="34" rx="4" fill="white"/>
<path d="M17 20.75C11.9938 20.75 2 23.2437 2 28.25V32H32V28.25C32 23.2437 22.0063 20.75 17 20.75ZM17 17C18.9891 17 20.8968 16.2098 22.3033 14.8033C23.7098 13.3968 24.5 11.4891 24.5 9.5C24.5 7.51088 23.7098 5.60322 22.3033 4.1967C20.8968 2.79018 18.9891 2 17 2C15.0109 2 13.1032 2.79018 11.6967 4.1967C10.2902 5.60322 9.5 7.51088 9.5 9.5C9.5 11.4891 10.2902 13.3968 11.6967 14.8033C13.1032 16.2098 15.0109 17 17 17Z" fill="#005BAA"/>
<rect x="21.5" y="18.5" width="10.996" height="11" rx="5.498" fill="#005BAA"/>
<rect x="21.5" y="18.5" width="10.996" height="11" rx="5.498" stroke="white"/>
<path d="M26.4019 21.3699L24.0707 26.0348C24.0197 26.1364 23.9956 26.2495 24.0007 26.3631C24.0057 26.4767 24.0398 26.5871 24.0996 26.6839C24.1594 26.7806 24.243 26.8605 24.3424 26.9158C24.4418 26.9711 24.5537 27.0001 24.6675 27H29.3325C29.4463 27.0001 29.5582 26.9711 29.6576 26.9158C29.757 26.8605 29.8406 26.7806 29.9004 26.6839C29.9602 26.5871 29.9943 26.4767 29.9993 26.3631C30.0044 26.2495 29.9803 26.1364 29.9293 26.0348L27.5955 21.3693C27.5402 21.2583 27.455 21.165 27.3496 21.0998C27.2442 21.0346 27.1226 21 26.9987 21C26.8747 21 26.7532 21.0346 26.6477 21.0998C26.5423 21.165 26.4572 21.259 26.4019 21.3699ZM27.3321 22.6631V24.6642C27.3321 24.7526 27.2969 24.8374 27.2344 24.8999C27.1719 24.9624 27.0871 24.9975 26.9987 24.9975C26.9102 24.9975 26.8254 24.9624 26.7629 24.8999C26.7004 24.8374 26.6653 24.7526 26.6653 24.6642V22.6631C26.6653 22.5747 26.7004 22.4899 26.7629 22.4274C26.8254 22.3649 26.9102 22.3298 26.9987 22.3298C27.0871 22.3298 27.1719 22.3649 27.2344 22.4274C27.2969 22.4899 27.3321 22.5747 27.3321 22.6631ZM26.9987 26.3321C26.9102 26.3321 26.8254 26.297 26.7629 26.2344C26.7004 26.1719 26.6653 26.0872 26.6653 25.9988C26.6653 25.9104 26.7004 25.8256 26.7629 25.7631C26.8254 25.7006 26.9102 25.6655 26.9987 25.6655C27.0871 25.6655 27.1719 25.7006 27.2344 25.7631C27.2969 25.8256 27.3321 25.9104 27.3321 25.9988C27.3321 26.0872 27.2969 26.1719 27.2344 26.2344C27.1719 26.297 27.0871 26.3321 26.9987 26.3321Z" fill="white"/>
</svg>
