<svg width="21" height="20" viewBox="0 0 21 20" fill="none" xmlns="http://www.w3.org/2000/svg">
<path d="M10 12.5C6.6625 12.5 0 14.1625 0 17.5V20H20V17.5C20 14.1625 13.3375 12.5 10 12.5ZM10 10C11.3261 10 12.5979 9.47322 13.5355 8.53553C14.4732 7.59785 15 6.32608 15 5C15 3.67392 14.4732 2.40215 13.5355 1.46447C12.5979 0.526784 11.3261 0 10 0C8.67392 0 7.40215 0.526784 6.46447 1.46447C5.52678 2.40215 5 3.67392 5 5C5 6.32608 5.52678 7.59785 6.46447 8.53553C7.40215 9.47322 8.67392 10 10 10Z" fill="white"/>
<rect x="13" y="11" width="8" height="8" rx="4" fill="#005BAA"/>
<mask id="path-3-inside-1_7322_2620" fill="white">
<path d="M17.3 14.5C17.1 14.45 16.9 14.35 16.75 14.2C16.6 14.15 16.55 14 16.55 13.9C16.55 13.8 16.6 13.65 16.7 13.6C16.85 13.5 17 13.4 17.15 13.45C17.45 13.45 17.7 13.6 17.85 13.8L18.3 13.2C18.15 13.05 18 12.95 17.85 12.85C17.7 12.75 17.5 12.7 17.3 12.7V12H16.7V12.7C16.45 12.75 16.2 12.9 16 13.1C15.8 13.35 15.65 13.65 15.7 13.95C15.7 14.25 15.8 14.55 16 14.75C16.25 15 16.6 15.15 16.9 15.3C17.05 15.35 17.25 15.45 17.4 15.55C17.5 15.65 17.55 15.8 17.55 15.95C17.55 16.1 17.5 16.25 17.4 16.4C17.25 16.55 17.05 16.6 16.9 16.6C16.7 16.6 16.45 16.55 16.3 16.4C16.15 16.3 16 16.15 15.9 16L15.4 16.55C15.55 16.75 15.7 16.9 15.9 17.05C16.15 17.2 16.45 17.35 16.75 17.35V18H17.3V17.25C17.6 17.2 17.85 17.05 18.05 16.85C18.3 16.6 18.45 16.2 18.45 15.85C18.45 15.55 18.35 15.2 18.1 15C17.85 14.75 17.6 14.6 17.3 14.5ZM17 11C14.8 11 13 12.8 13 15C13 17.2 14.8 19 17 19C19.2 19 21 17.2 21 15C21 12.8 19.2 11 17 11ZM17 18.45C15.1 18.45 13.55 16.9 13.55 15C13.55 13.1 15.1 11.55 17 11.55C18.9 11.55 20.45 13.1 20.45 15C20.45 16.9 18.9 18.45 17 18.45Z"/>
</mask>
<path d="M17.3 14.5C17.1 14.45 16.9 14.35 16.75 14.2C16.6 14.15 16.55 14 16.55 13.9C16.55 13.8 16.6 13.65 16.7 13.6C16.85 13.5 17 13.4 17.15 13.45C17.45 13.45 17.7 13.6 17.85 13.8L18.3 13.2C18.15 13.05 18 12.95 17.85 12.85C17.7 12.75 17.5 12.7 17.3 12.7V12H16.7V12.7C16.45 12.75 16.2 12.9 16 13.1C15.8 13.35 15.65 13.65 15.7 13.95C15.7 14.25 15.8 14.55 16 14.75C16.25 15 16.6 15.15 16.9 15.3C17.05 15.35 17.25 15.45 17.4 15.55C17.5 15.65 17.55 15.8 17.55 15.95C17.55 16.1 17.5 16.25 17.4 16.4C17.25 16.55 17.05 16.6 16.9 16.6C16.7 16.6 16.45 16.55 16.3 16.4C16.15 16.3 16 16.15 15.9 16L15.4 16.55C15.55 16.75 15.7 16.9 15.9 17.05C16.15 17.2 16.45 17.35 16.75 17.35V18H17.3V17.25C17.6 17.2 17.85 17.05 18.05 16.85C18.3 16.6 18.45 16.2 18.45 15.85C18.45 15.55 18.35 15.2 18.1 15C17.85 14.75 17.6 14.6 17.3 14.5ZM17 11C14.8 11 13 12.8 13 15C13 17.2 14.8 19 17 19C19.2 19 21 17.2 21 15C21 12.8 19.2 11 17 11ZM17 18.45C15.1 18.45 13.55 16.9 13.55 15C13.55 13.1 15.1 11.55 17 11.55C18.9 11.55 20.45 13.1 20.45 15C20.45 16.9 18.9 18.45 17 18.45Z" fill="#005BAA"/>
<path d="M17.3 14.5L17.6162 13.5513L17.5798 13.5392L17.5425 13.5299L17.3 14.5ZM16.75 14.2L17.4571 13.4929L17.2902 13.326L17.0662 13.2513L16.75 14.2ZM16.7 13.6L17.1472 14.4944L17.2029 14.4666L17.2547 14.4321L16.7 13.6ZM17.15 13.45L16.8338 14.3987L16.9877 14.45H17.15V13.45ZM17.85 13.8L17.05 14.4L17.85 15.4667L18.65 14.4L17.85 13.8ZM18.3 13.2L19.1 13.8L19.6204 13.1062L19.0071 12.4929L18.3 13.2ZM17.3 12.7H16.3V13.7H17.3V12.7ZM17.3 12H18.3V11H17.3V12ZM16.7 12V11H15.7V12H16.7ZM16.7 12.7L16.8961 13.6806L17.7 13.5198V12.7H16.7ZM16 13.1L15.2929 12.3929L15.2537 12.4321L15.2191 12.4753L16 13.1ZM15.7 13.95H16.7V13.8672L16.6864 13.7856L15.7 13.95ZM16.9 15.3L16.4528 16.1944L16.5164 16.2262L16.5838 16.2487L16.9 15.3ZM17.4 15.55L18.1071 14.8429L18.0371 14.7729L17.9547 14.7179L17.4 15.55ZM17.4 16.4L18.1071 17.1071L18.1771 17.0371L18.2321 16.9547L17.4 16.4ZM16.3 16.4L17.0071 15.6929L16.9371 15.6229L16.8547 15.5679L16.3 16.4ZM15.9 16L16.7321 15.4453L16.0216 14.3796L15.1601 15.3273L15.9 16ZM15.4 16.55L14.6601 15.8773L14.1041 16.4888L14.6 17.15L15.4 16.55ZM15.9 17.05L15.3 17.85L15.3413 17.881L15.3855 17.9075L15.9 17.05ZM16.75 17.35H17.75V16.35H16.75V17.35ZM16.75 18H15.75V19H16.75V18ZM17.3 18V19H18.3V18H17.3ZM17.3 17.25L17.1356 16.2636L16.3 16.4029V17.25H17.3ZM18.1 15L17.3929 15.7071L17.4321 15.7463L17.4753 15.7809L18.1 15ZM17.5425 13.5299C17.5172 13.5235 17.4944 13.5145 17.4768 13.5051C17.4593 13.4958 17.4541 13.4899 17.4571 13.4929L16.0429 14.9071C16.3446 15.2088 16.717 15.385 17.0575 15.4701L17.5425 13.5299ZM17.0662 13.2513C17.2655 13.3177 17.398 13.4573 17.4679 13.5831C17.5289 13.6929 17.55 13.8012 17.55 13.9H15.55C15.55 14.2222 15.7077 14.9066 16.4338 15.1487L17.0662 13.2513ZM17.55 13.9C17.55 13.9951 17.531 14.0706 17.5013 14.1374C17.4772 14.1916 17.386 14.375 17.1472 14.4944L16.2528 12.7056C15.914 12.875 15.7478 13.1584 15.6737 13.3251C15.594 13.5044 15.55 13.7049 15.55 13.9H17.55ZM17.2547 14.4321C17.2957 14.4047 17.3145 14.3924 17.3296 14.3833C17.3437 14.3747 17.3347 14.3814 17.3096 14.3918C17.258 14.4133 17.0705 14.4776 16.8338 14.3987L17.4662 12.5013C17.0795 12.3724 16.742 12.4617 16.5404 12.5457C16.3588 12.6213 16.2003 12.7313 16.1453 12.7679L17.2547 14.4321ZM17.15 14.45C17.1303 14.45 17.1087 14.4445 17.0905 14.4349C17.0748 14.4267 17.0617 14.4156 17.05 14.4L18.65 13.2C18.3302 12.7736 17.7952 12.45 17.15 12.45V14.45ZM18.65 14.4L19.1 13.8L17.5 12.6L17.05 13.2L18.65 14.4ZM19.0071 12.4929C18.7786 12.2643 18.5508 12.1154 18.4047 12.0179L17.2953 13.6821C17.4492 13.7846 17.5214 13.8357 17.5929 13.9071L19.0071 12.4929ZM18.4047 12.0179C18.0539 11.7841 17.6483 11.7 17.3 11.7V13.7C17.3085 13.7 17.3165 13.7005 17.3232 13.7014C17.3301 13.7023 17.3344 13.7033 17.3361 13.7037C17.3378 13.7042 17.3353 13.7037 17.329 13.7009C17.3227 13.6982 17.3109 13.6925 17.2953 13.6821L18.4047 12.0179ZM18.3 12.7V12H16.3V12.7H18.3ZM17.3 11H16.7V13H17.3V11ZM15.7 12V12.7H17.7V12H15.7ZM16.5039 11.7194C16.0172 11.8168 15.5978 12.088 15.2929 12.3929L16.7071 13.8071C16.7494 13.7648 16.7934 13.7317 16.8323 13.7092C16.8512 13.6982 16.8669 13.6909 16.8786 13.6864C16.8903 13.6818 16.8962 13.6806 16.8961 13.6806L16.5039 11.7194ZM15.2191 12.4753C14.9634 12.7949 14.5923 13.3868 14.7136 14.1144L16.6864 13.7856C16.6979 13.8548 16.6799 13.8901 16.6875 13.8706C16.6912 13.8611 16.6995 13.8429 16.7157 13.8164C16.7318 13.79 16.7533 13.7591 16.7809 13.7247L15.2191 12.4753ZM14.7 13.95C14.7 14.4485 14.8629 15.0271 15.2929 15.4571L16.7071 14.0429C16.7248 14.0606 16.7223 14.0664 16.7148 14.0458C16.7073 14.025 16.7 13.9914 16.7 13.95H14.7ZM15.2929 15.4571C15.6893 15.8536 16.2425 16.0893 16.4528 16.1944L17.3472 14.4056C16.9575 14.2107 16.8107 14.1464 16.7071 14.0429L15.2929 15.4571ZM16.5838 16.2487C16.6386 16.267 16.7591 16.3246 16.8453 16.3821L17.9547 14.7179C17.7409 14.5754 17.4614 14.433 17.2162 14.3513L16.5838 16.2487ZM16.6929 16.2571C16.6252 16.1894 16.5902 16.1211 16.5727 16.073C16.5552 16.025 16.55 15.9836 16.55 15.95H18.55C18.55 15.6015 18.4371 15.1729 18.1071 14.8429L16.6929 16.2571ZM16.55 15.95C16.55 15.9118 16.5567 15.8802 16.5638 15.8588C16.5705 15.8386 16.5754 15.8341 16.5679 15.8453L18.2321 16.9547C18.4191 16.6741 18.55 16.3343 18.55 15.95H16.55ZM16.6929 15.6929C16.7372 15.6486 16.7826 15.6256 16.8137 15.6145C16.8421 15.6044 16.8691 15.6 16.9 15.6V17.6C17.2393 17.6 17.7219 17.4923 18.1071 17.1071L16.6929 15.6929ZM16.9 15.6C16.8909 15.6 16.8811 15.5994 16.8723 15.5982C16.8634 15.5971 16.8604 15.596 16.8634 15.5969C16.8661 15.5977 16.8812 15.6023 16.9047 15.615C16.9285 15.6279 16.9661 15.6519 17.0071 15.6929L15.5929 17.1071C16.0251 17.5393 16.6082 17.6 16.9 17.6V15.6ZM16.8547 15.5679C16.8146 15.5412 16.7588 15.4854 16.7321 15.4453L15.0679 16.5547C15.2412 16.8146 15.4854 17.0588 15.7453 17.2321L16.8547 15.5679ZM15.1601 15.3273L14.6601 15.8773L16.1399 17.2227L16.6399 16.6727L15.1601 15.3273ZM14.6 17.15C14.8069 17.4258 15.0242 17.6431 15.3 17.85L16.5 16.25C16.3758 16.1569 16.2931 16.0742 16.2 15.95L14.6 17.15ZM15.3855 17.9075C15.6466 18.0642 16.1532 18.35 16.75 18.35V16.35C16.7634 16.35 16.7408 16.3524 16.6706 16.325C16.6015 16.2979 16.5182 16.2547 16.4145 16.1925L15.3855 17.9075ZM15.75 17.35V18H17.75V17.35H15.75ZM16.75 19H17.3V17H16.75V19ZM18.3 18V17.25H16.3V18H18.3ZM17.4644 18.2364C18.0064 18.1461 18.4382 17.876 18.7571 17.5571L17.3429 16.1429C17.2618 16.224 17.1936 16.2539 17.1356 16.2636L17.4644 18.2364ZM18.7571 17.5571C19.213 17.1012 19.45 16.4381 19.45 15.85H17.45C17.45 15.9619 17.387 16.0988 17.3429 16.1429L18.7571 17.5571ZM19.45 15.85C19.45 15.3903 19.3053 14.6836 18.7247 14.2191L17.4753 15.7809C17.4516 15.7619 17.4383 15.7448 17.4327 15.7365C17.4274 15.7287 17.4286 15.7284 17.4324 15.7386C17.4362 15.7488 17.441 15.7649 17.4446 15.7863C17.4482 15.8077 17.45 15.8297 17.45 15.85H19.45ZM18.8071 14.2929C18.448 13.9338 18.0645 13.7007 17.6162 13.5513L16.9838 15.4487C17.1355 15.4993 17.252 15.5662 17.3929 15.7071L18.8071 14.2929ZM17 10C14.2477 10 12 12.2477 12 15H14C14 13.3523 15.3523 12 17 12V10ZM12 15C12 17.7523 14.2477 20 17 20V18C15.3523 18 14 16.6477 14 15H12ZM17 20C19.7523 20 22 17.7523 22 15H20C20 16.6477 18.6477 18 17 18V20ZM22 15C22 12.2477 19.7523 10 17 10V12C18.6477 12 20 13.3523 20 15H22ZM17 17.45C15.6523 17.45 14.55 16.3477 14.55 15H12.55C12.55 17.4523 14.5477 19.45 17 19.45V17.45ZM14.55 15C14.55 13.6523 15.6523 12.55 17 12.55V10.55C14.5477 10.55 12.55 12.5477 12.55 15H14.55ZM17 12.55C18.3477 12.55 19.45 13.6523 19.45 15H21.45C21.45 12.5477 19.4523 10.55 17 10.55V12.55ZM19.45 15C19.45 16.3477 18.3477 17.45 17 17.45V19.45C19.4523 19.45 21.45 17.4523 21.45 15H19.45Z" fill="white" mask="url(#path-3-inside-1_7322_2620)"/>
</svg>
