<svg width="34" height="34" viewBox="0 0 34 34" fill="none" xmlns="http://www.w3.org/2000/svg">
<rect width="34" height="34" rx="4" fill="white"/>
<path d="M22.275 25.25L25.75 21.8L24.7 20.75L22.275 23.125L21.3 22.15L20.25 23.225L22.275 25.25ZM11 14H23V12H11V14ZM23 28C21.6167 28 20.4377 27.5123 19.463 26.537C18.4883 25.5617 18.0007 24.3827 18 23C17.9993 21.6173 18.487 20.4383 19.463 19.463C20.439 18.4877 21.618 18 23 18C24.382 18 25.5613 18.4877 26.538 19.463C27.5147 20.4383 28.002 21.6173 28 23C27.998 24.3827 27.5103 25.562 26.537 26.538C25.5637 27.514 24.3847 28.0013 23 28ZM8 27V10C8 9.45 8.196 8.97933 8.588 8.588C8.98 8.19667 9.45067 8.00067 10 8H24C24.55 8 25.021 8.196 25.413 8.588C25.805 8.98 26.0007 9.45067 26 10V16.675C25.5333 16.4417 25.0457 16.2707 24.537 16.162C24.0283 16.0533 23.516 15.9993 23 16H11V18H18.1C17.8167 18.2833 17.5543 18.5917 17.313 18.925C17.0717 19.2583 16.859 19.6167 16.675 20H11V22H16.075C16.0417 22.1667 16.021 22.3293 16.013 22.488C16.005 22.6467 16.0007 22.8173 16 23C16 23.7 16.096 24.371 16.288 25.013C16.48 25.655 16.7673 26.2673 17.15 26.85L17 27L15.5 25.5L14 27L12.5 25.5L11 27L9.5 25.5L8 27Z" fill="#005BAA"/>
</svg>
