<svg width="34" height="34" viewBox="0 0 34 34" fill="none" xmlns="http://www.w3.org/2000/svg">
<rect width="34" height="34" rx="4" fill="white"/>
<path d="M17 19.5C13.6625 19.5 7 21.1625 7 24.5V27H27V24.5C27 21.1625 20.3375 19.5 17 19.5ZM17 17C18.3261 17 19.5979 16.4732 20.5355 15.5355C21.4732 14.5979 22 13.3261 22 12C22 10.6739 21.4732 9.40215 20.5355 8.46447C19.5979 7.52678 18.3261 7 17 7C15.6739 7 14.4021 7.52678 13.4645 8.46447C12.5268 9.40215 12 10.6739 12 12C12 13.3261 12.5268 14.5979 13.4645 15.5355C14.4021 16.4732 15.6739 17 17 17Z" fill="#005BAA"/>
<rect x="21.25" y="19.25" width="6.5" height="6.5" rx="3.25" fill="#005BAA"/>
<rect x="21.25" y="19.25" width="6.5" height="6.5" rx="3.25" stroke="white" stroke-width="0.5"/>
<path d="M27 22.5C27 22.5442 26.9781 22.5866 26.939 22.6179C26.8999 22.6491 26.8469 22.6667 26.7917 22.6667H22.2083C22.1531 22.6667 22.1001 22.6491 22.061 22.6179C22.0219 22.5866 22 22.5442 22 22.5C22 22.4558 22.0219 22.4134 22.061 22.3821C22.1001 22.3509 22.1531 22.3333 22.2083 22.3333H26.7917C26.8469 22.3333 26.8999 22.3509 26.939 22.3821C26.9781 22.4134 27 22.4558 27 22.5ZM22.2083 21.3333H26.7917C26.8469 21.3333 26.8999 21.3158 26.939 21.2845C26.9781 21.2533 27 21.2109 27 21.1667C27 21.1225 26.9781 21.0801 26.939 21.0488C26.8999 21.0176 26.8469 21 26.7917 21H22.2083C22.1531 21 22.1001 21.0176 22.061 21.0488C22.0219 21.0801 22 21.1225 22 21.1667C22 21.2109 22.0219 21.2533 22.061 21.2845C22.1001 21.3158 22.1531 21.3333 22.2083 21.3333ZM26.7917 23.6667H22.2083C22.1531 23.6667 22.1001 23.6842 22.061 23.7155C22.0219 23.7467 22 23.7891 22 23.8333C22 23.8775 22.0219 23.9199 22.061 23.9512C22.1001 23.9824 22.1531 24 22.2083 24H26.7917C26.8469 24 26.8999 23.9824 26.939 23.9512C26.9781 23.9199 27 23.8775 27 23.8333C27 23.7891 26.9781 23.7467 26.939 23.7155C26.8999 23.6842 26.8469 23.6667 26.7917 23.6667Z" fill="white"/>
</svg>
