<svg width="20" height="20" viewBox="0 0 20 20" fill="none" xmlns="http://www.w3.org/2000/svg">
<path d="M10.0007 9.9987C9.08398 9.9987 8.29926 9.67231 7.64648 9.01953C6.99371 8.36675 6.66732 7.58203 6.66732 6.66536C6.66732 5.7487 6.99371 4.96398 7.64648 4.3112C8.29926 3.65842 9.08398 3.33203 10.0007 3.33203C10.9173 3.33203 11.702 3.65842 12.3548 4.3112C13.0076 4.96398 13.334 5.7487 13.334 6.66536C13.334 7.58203 13.0076 8.36675 12.3548 9.01953C11.702 9.67231 10.9173 9.9987 10.0007 9.9987ZM3.33398 16.6654V14.332C3.33398 13.8598 3.45565 13.4259 3.69898 13.0304C3.94232 12.6348 4.2651 12.3326 4.66732 12.1237C5.52843 11.6931 6.40343 11.3704 7.29232 11.1554C8.18121 10.9404 9.08398 10.8326 10.0007 10.832C10.9173 10.832 11.8201 10.9398 12.709 11.1554C13.5979 11.3709 14.4729 11.6937 15.334 12.1237C15.7368 12.332 16.0598 12.6343 16.3032 13.0304C16.5465 13.4265 16.6679 13.8604 16.6673 14.332V16.6654H3.33398Z" fill="#F34657"/>
<path d="M18.0827 13.3333C18.0827 15.0362 16.7022 16.4167 14.9993 16.4167C13.2965 16.4167 11.916 15.0362 11.916 13.3333C11.916 11.6305 13.2965 10.25 14.9993 10.25C16.7022 10.25 18.0827 11.6305 18.0827 13.3333Z" fill="white" stroke="#F34657" stroke-width="0.5"/>
</svg>
