<svg width="24" height="24" viewBox="0 0 24 24" fill="none" xmlns="http://www.w3.org/2000/svg">
<path d="M12 4C7.576 4 4 7.576 4 12C4 16.424 7.576 20 12 20C16.424 20 20 16.424 20 12C20 7.576 16.424 4 12 4ZM15.7656 14.6344C16.0784 14.9472 16.0784 15.4528 15.7656 15.7656C15.6096 15.9216 15.4048 16 15.2 16C14.9952 16 14.7904 15.9216 14.6344 15.7656L12 13.1312L9.3656 15.7656C9.2096 15.9216 9.0048 16 8.8 16C8.5952 16 8.3904 15.9216 8.2344 15.7656C7.9216 15.4528 7.9216 14.9472 8.2344 14.6344L10.8688 12L8.2344 9.3656C7.9216 9.0528 7.9216 8.5472 8.2344 8.2344C8.5472 7.9216 9.0528 7.9216 9.3656 8.2344L12 10.8688L14.6344 8.2344C14.9472 7.9216 15.4528 7.9216 15.7656 8.2344C16.0784 8.5472 16.0784 9.0528 15.7656 9.3656L13.1312 12L15.7656 14.6344Z" fill="#EC3E3E"/>
</svg>
