<svg width="24" height="24" viewBox="0 0 24 24" fill="none" xmlns="http://www.w3.org/2000/svg">
<path d="M19.9649 4.68581C20.0013 4.59495 20.0102 4.49541 19.9905 4.39953C19.9709 4.30365 19.9235 4.21566 19.8543 4.14645C19.7851 4.07724 19.6971 4.02987 19.6012 4.0102C19.5053 3.99053 19.4058 3.99944 19.3149 4.03581L4.76776 9.85488H4.76676L4.31475 10.0349C4.22914 10.069 4.15464 10.1262 4.09947 10.2C4.0443 10.2738 4.01061 10.3615 4.00212 10.4533C3.99364 10.5451 4.01069 10.6374 4.05139 10.7201C4.09209 10.8028 4.15485 10.8726 4.23275 10.9219L4.64276 11.1819L4.64376 11.1839L9.63882 14.3619L11.2288 16.86C12.0008 18 12.0008 17 12.0008 16.5C12.0007 15.8645 12.1352 15.2363 12.3953 14.6566C12.6555 14.0769 13.0355 13.5588 13.5103 13.1365C13.9851 12.7143 14.544 12.3973 15.1501 12.2066C15.7562 12.0158 16.3958 11.9556 17.0269 12.0299L19.9649 4.68581ZM18.1319 6.57584L10.6378 14.0699L10.4228 13.7319C10.3834 13.6699 10.3309 13.6173 10.2688 13.5779L9.93082 13.3629L17.4249 5.86883L18.6029 5.39782L18.1319 6.57584Z" fill="#005BAA"/>
<path d="M20.0009 16.5C20.0009 17.4282 19.6322 18.3185 18.9758 18.9749C18.3194 19.6312 17.4292 20 16.5009 20C15.5726 20 14.6824 19.6312 14.026 18.9749C13.3696 18.3185 13.0009 17.4282 13.0009 16.5C13.0009 15.5717 13.3696 14.6814 14.026 14.0251C14.6824 13.3687 15.5726 12.9999 16.5009 12.9999C17.4292 12.9999 18.3194 13.3687 18.9758 14.0251C19.6322 14.6814 20.0009 15.5717 20.0009 16.5ZM18.0079 14.8209C17.9516 14.7872 17.8891 14.7648 17.8242 14.7552C17.7592 14.7456 17.693 14.7489 17.6293 14.7648C17.5656 14.7808 17.5056 14.8092 17.4529 14.8483C17.4002 14.8874 17.3557 14.9366 17.3219 14.9929L16.1519 16.943L15.6049 16.396C15.511 16.3021 15.3837 16.2493 15.2509 16.2493C15.1181 16.2493 14.9908 16.3021 14.8969 16.396C14.803 16.4898 14.7502 16.6172 14.7502 16.75C14.7502 16.8827 14.803 17.0101 14.8969 17.104L15.6709 17.877C15.7515 17.9577 15.8494 18.019 15.9572 18.0562C16.065 18.0934 16.1799 18.1055 16.2931 18.0916C16.4062 18.0777 16.5148 18.0382 16.6104 17.976C16.706 17.9139 16.7862 17.8308 16.8449 17.733L18.1799 15.5069C18.2137 15.4506 18.236 15.3882 18.2456 15.3232C18.2553 15.2582 18.252 15.192 18.236 15.1283C18.2201 15.0646 18.1917 15.0047 18.1526 14.9519C18.1134 14.8992 18.0643 14.8547 18.0079 14.8209Z" fill="#005BAA"/>
</svg>
