<svg width="24" height="24" viewBox="0 0 24 24" fill="none" xmlns="http://www.w3.org/2000/svg">
<path d="M10.0016 9C10.0016 8.73478 10.1069 8.48043 10.2945 8.29289C10.482 8.10536 10.7363 8 11.0016 8C11.2668 8 11.5211 8.10536 11.7087 8.29289C11.8962 8.48043 12.0016 8.73478 12.0016 9V13.47L13.2116 13.6L18.1516 15.79C18.6816 16.03 19.0016 16.56 19.0016 17.14V21.5C18.9716 22.32 18.3216 22.97 17.5016 23H11.0016C10.6216 23 10.2616 22.85 10.0016 22.57L5.10156 18.37L5.84156 17.6C6.03156 17.39 6.30156 17.28 6.58156 17.28H6.80156L10.0016 19V9ZM9.00156 12.44V9C9.00156 8.46957 9.21228 7.96086 9.58735 7.58579C9.96242 7.21071 10.4711 7 11.0016 7C11.532 7 12.0407 7.21071 12.4158 7.58579C12.7908 7.96086 13.0016 8.46957 13.0016 9V12.44C14.1916 11.75 15.0016 10.47 15.0016 9C15.0016 7.93913 14.5801 6.92172 13.83 6.17157C13.0798 5.42143 12.0624 5 11.0016 5C9.9407 5 8.92328 5.42143 8.17314 6.17157C7.42299 6.92172 7.00156 7.93913 7.00156 9C7.00156 10.47 7.81156 11.75 9.00156 12.44Z" fill="#7B68EE"/>
</svg>
