<svg width="16" height="16" viewBox="0 0 16 16" fill="none" xmlns="http://www.w3.org/2000/svg">
<path d="M14.5163 9.84362C14.497 10.1196 14.3923 10.3836 14.2163 10.597C14.045 10.8043 13.8119 10.9515 13.551 11.017L11.4463 11.3643L11.3863 11.4243C11.3588 11.4525 11.3383 11.4868 11.3263 11.5243L10.993 13.459C10.9282 13.7287 10.7776 13.9701 10.5639 14.147C10.3501 14.3238 10.0848 14.4265 9.80766 14.4396H9.74766C9.49833 14.4396 9.25433 14.3656 9.04766 14.2263C8.82285 14.0789 8.6504 13.8643 8.55499 13.613L6.69699 8.34229C6.61447 8.11449 6.59886 7.86783 6.65202 7.63144C6.70518 7.39506 6.82489 7.17882 6.99699 7.00829C7.16566 6.83295 7.38366 6.71495 7.62299 6.66829C7.86 6.61385 8.10777 6.63008 8.33566 6.71495L13.6637 8.56895C13.933 8.65895 14.1663 8.83162 14.3303 9.06229C14.4737 9.29629 14.5383 9.56962 14.5163 9.84362Z" fill="white"/>
<path d="M6.20524 14.8291C6.15656 14.8355 6.10725 14.8355 6.05857 14.8291C4.9129 14.4688 3.87959 13.8189 3.05857 12.9424C2.23649 12.0651 1.65443 10.9908 1.36856 9.82302C1.08269 8.65526 1.10267 7.43352 1.42657 6.27573C1.74971 5.1181 2.36574 4.06329 3.21524 3.21306C4.06402 2.36384 5.11756 1.74799 6.274 1.42508C7.43043 1.10216 8.65062 1.08309 9.81657 1.36973C10.9826 1.65692 12.0547 2.24017 12.9292 3.06306C13.8043 3.88697 14.4522 4.92249 14.8106 6.06973C14.8416 6.16391 14.8436 6.26523 14.8164 6.36058C14.7892 6.45593 14.734 6.54092 14.6579 6.60454C14.5819 6.66817 14.4885 6.7075 14.3898 6.71746C14.2912 6.72742 14.1918 6.70754 14.1046 6.6604C13.9876 6.59931 13.8992 6.49504 13.8579 6.36973C13.5549 5.38044 13.0015 4.48621 12.2512 3.77373C11.5015 3.06217 10.5804 2.55665 9.57756 2.30631C8.57468 2.05597 7.5241 2.06932 6.5279 2.34506C5.53154 2.62157 4.62367 3.15117 3.89257 3.8824C3.16055 4.61405 2.63 5.52243 2.35235 6.51947C2.07471 7.51651 2.0594 8.56837 2.3079 9.57306C2.55485 10.5777 3.05764 11.5013 3.76735 12.254C4.47706 13.0067 5.36953 13.5629 6.3579 13.8684C6.42405 13.8894 6.48527 13.9235 6.53784 13.9688C6.59042 14.0141 6.63327 14.0696 6.6638 14.1319C6.69434 14.1942 6.71192 14.262 6.71549 14.3313C6.71906 14.4006 6.70854 14.4699 6.68457 14.5351C6.64322 14.6265 6.57534 14.7033 6.48974 14.7556C6.40413 14.8079 6.30477 14.8333 6.20457 14.8284" fill="white"/>
</svg>
