<svg width="24" height="24" viewBox="0 0 24 24" fill="none" xmlns="http://www.w3.org/2000/svg">
<path d="M12 4C7.5816 4 4 7.5816 4 12C4 16.4184 7.5816 20 12 20C16.4184 20 20 16.4184 20 12C20 7.5816 16.4184 4 12 4ZM16.5656 10.1656L10.9656 15.7656C10.8096 15.9216 10.6048 16 10.4 16C10.1952 16 9.9904 15.9216 9.8344 15.7656L7.4344 13.3656C7.1216 13.0528 7.1216 12.5472 7.4344 12.2344C7.7472 11.9216 8.2528 11.9216 8.5656 12.2344L10.4 14.0688L15.4344 9.0344C15.7472 8.7216 16.2528 8.7216 16.5656 9.0344C16.8784 9.3472 16.8784 9.8528 16.5656 10.1656Z" fill="#51CB49"/>
</svg>
