<svg width="70" height="70" viewBox="0 0 70 70" fill="none" xmlns="http://www.w3.org/2000/svg">
<circle cx="35" cy="35" r="34" fill="#E9F9FF" stroke="#49CCF9" stroke-width="2"/>
<path d="M43.5 45C44.9001 45 45.6002 45 46.135 44.7275C46.6054 44.4878 46.9878 44.1054 47.2275 43.635C47.5 43.1002 47.5 42.4001 47.5 41V29C47.5 27.5999 47.5 26.8998 47.2275 26.365C46.9878 25.8946 46.6054 25.5122 46.135 25.2725C45.6002 25 44.9001 25 43.5 25L26.5 25C25.0999 25 24.3998 25 23.865 25.2725C23.3946 25.5122 23.0122 25.8946 22.7725 26.365C22.5 26.8998 22.5 27.5999 22.5 29L22.5 41C22.5 42.4001 22.5 43.1002 22.7725 43.635C23.0122 44.1054 23.3946 44.4878 23.865 44.7275C24.3998 45 25.0999 45 26.5 45L43.5 45Z" fill="#49CCF9"/>
<path d="M47.5 30.625H22.5M22.5 35.625H26.9333C27.6086 35.625 27.9462 35.625 28.2727 35.6832C28.5624 35.7348 28.8451 35.8204 29.1149 35.9382C29.4188 36.0709 29.6997 36.2581 30.2615 36.6327L30.9885 37.1173C31.5503 37.4919 31.8312 37.6791 32.1351 37.8118C32.4049 37.9296 32.6876 38.0152 32.9773 38.0668C33.3038 38.125 33.6414 38.125 34.3167 38.125H35.6833C36.3586 38.125 36.6962 38.125 37.0227 38.0668C37.3124 38.0152 37.5951 37.9296 37.8649 37.8118C38.1688 37.6791 38.4497 37.4919 39.0115 37.1173L39.7385 36.6327C40.3003 36.2581 40.5812 36.0709 40.8851 35.9382C41.1549 35.8204 41.4376 35.7348 41.7273 35.6832C42.0538 35.625 42.3914 35.625 43.0667 35.625H47.5M22.5 29L22.5 41C22.5 42.4001 22.5 43.1002 22.7725 43.635C23.0122 44.1054 23.3946 44.4878 23.865 44.7275C24.3998 45 25.0999 45 26.5 45L43.5 45C44.9001 45 45.6002 45 46.135 44.7275C46.6054 44.4878 46.9878 44.1054 47.2275 43.635C47.5 43.1002 47.5 42.4001 47.5 41V29C47.5 27.5999 47.5 26.8998 47.2275 26.365C46.9878 25.8946 46.6054 25.5122 46.135 25.2725C45.6002 25 44.9001 25 43.5 25L26.5 25C25.0999 25 24.3998 25 23.865 25.2725C23.3946 25.5122 23.0122 25.8946 22.7725 26.365C22.5 26.8998 22.5 27.5999 22.5 29Z" stroke="white" stroke-width="2" stroke-linecap="round" stroke-linejoin="round"/>
</svg>
