<svg width="28" height="28" viewBox="0 0 28 28" fill="none" xmlns="http://www.w3.org/2000/svg">
<rect width="28" height="28" rx="14" fill="#FFE5E5"/>
<g clip-path="url(#clip0_10273_4332)">
<path d="M14 6C9.576 6 6 9.576 6 14C6 18.424 9.576 22 14 22C18.424 22 22 18.424 22 14C22 9.576 18.424 6 14 6ZM17.44 17.44C17.366 17.5142 17.2781 17.573 17.1813 17.6131C17.0845 17.6533 16.9808 17.674 16.876 17.674C16.7712 17.674 16.6675 17.6533 16.5707 17.6131C16.4739 17.573 16.386 17.5142 16.312 17.44L14 15.128L11.688 17.44C11.5384 17.5896 11.3355 17.6736 11.124 17.6736C10.9125 17.6736 10.7096 17.5896 10.56 17.44C10.4104 17.2904 10.3264 17.0875 10.3264 16.876C10.3264 16.7713 10.347 16.6675 10.3871 16.5708C10.4272 16.474 10.4859 16.3861 10.56 16.312L12.872 14L10.56 11.688C10.4104 11.5384 10.3264 11.3355 10.3264 11.124C10.3264 10.9125 10.4104 10.7096 10.56 10.56C10.7096 10.4104 10.9125 10.3264 11.124 10.3264C11.3355 10.3264 11.5384 10.4104 11.688 10.56L14 12.872L16.312 10.56C16.3861 10.4859 16.474 10.4272 16.5708 10.3871C16.6675 10.347 16.7713 10.3264 16.876 10.3264C16.9807 10.3264 17.0845 10.347 17.1812 10.3871C17.278 10.4272 17.3659 10.4859 17.44 10.56C17.5141 10.6341 17.5728 10.722 17.6129 10.8188C17.653 10.9155 17.6736 11.0193 17.6736 11.124C17.6736 11.2287 17.653 11.3325 17.6129 11.4292C17.5728 11.526 17.5141 11.6139 17.44 11.688L15.128 14L17.44 16.312C17.744 16.616 17.744 17.128 17.44 17.44Z" fill="#E92020"/>
</g>
<defs>
<clipPath id="clip0_10273_4332">
<rect width="16" height="16" fill="white" transform="translate(6 6)"/>
</clipPath>
</defs>
</svg>
