<svg width="40" height="41" viewBox="0 0 40 41" fill="none" xmlns="http://www.w3.org/2000/svg">
<g clip-path="url(#clip0_10201_4516)">
<path d="M20 0C8.94 0 0 8.94533 0 20.0119C0 31.0785 8.94 40.0238 20 40.0238C31.06 40.0238 40 31.0785 40 20.0119C40 8.94533 31.06 0 20 0ZM28.6 28.617C28.415 28.8026 28.1952 28.9497 27.9532 29.0502C27.7113 29.1506 27.4519 29.2023 27.19 29.2023C26.9281 29.2023 26.6687 29.1506 26.4268 29.0502C26.1848 28.9497 25.965 28.8026 25.78 28.617L20 22.8336L14.22 28.617C13.846 28.9912 13.3389 29.2014 12.81 29.2014C12.2811 29.2014 11.774 28.9912 11.4 28.617C11.026 28.2429 10.816 27.7354 10.816 27.2062C10.816 26.9442 10.8675 26.6847 10.9677 26.4427C11.068 26.2006 11.2148 25.9806 11.4 25.7954L17.18 20.0119L11.4 14.2285C11.026 13.8543 10.816 13.3468 10.816 12.8176C10.816 12.2885 11.026 11.781 11.4 11.4068C11.774 11.0326 12.2811 10.8224 12.81 10.8224C13.3389 10.8224 13.846 11.0326 14.22 11.4068L20 17.1902L25.78 11.4068C25.9652 11.2215 26.185 11.0746 26.4269 10.9743C26.6688 10.874 26.9281 10.8224 27.19 10.8224C27.4519 10.8224 27.7112 10.874 27.9531 10.9743C28.195 11.0746 28.4148 11.2215 28.6 11.4068C28.7852 11.5921 28.932 11.812 29.0323 12.0541C29.1325 12.2962 29.184 12.5556 29.184 12.8176C29.184 13.0797 29.1325 13.3391 29.0323 13.5812C28.932 13.8233 28.7852 14.0432 28.6 14.2285L22.82 20.0119L28.6 25.7954C29.36 26.5558 29.36 27.8366 28.6 28.617Z" fill="#E66767"/>
</g>
<defs>
<clipPath id="clip0_10201_4516">
<rect width="40" height="40.0238" fill="white"/>
</clipPath>
</defs>
</svg>
