<svg width="44" height="44" viewBox="0 0 44 44" fill="none" xmlns="http://www.w3.org/2000/svg">
<path d="M30.258 35.398C31.7002 35.398 32.9175 34.8993 33.91 33.902C34.9024 32.9059 35.3987 31.6861 35.3987 30.2427C35.3987 28.7992 34.9 27.5819 33.9027 26.5907C32.9053 25.5994 31.6855 25.1032 30.2433 25.102C28.8011 25.1008 27.5838 25.5994 26.5913 26.598C25.5989 27.5966 25.1027 28.8163 25.1027 30.2573C25.1027 31.6983 25.6013 32.9157 26.5987 33.9093C27.596 34.903 28.8158 35.3992 30.258 35.398ZM40.2515 40.249C40.0816 40.4201 39.8653 40.5057 39.6025 40.5057C39.3397 40.5057 39.1228 40.4201 38.9517 40.249L34.5095 35.7702C33.9143 36.2456 33.2543 36.608 32.5295 36.8573C31.8047 37.1067 31.0451 37.2313 30.2507 37.2313C28.3122 37.2313 26.664 36.5524 25.3062 35.1945C23.9483 33.8366 23.2699 32.1884 23.2712 30.25C23.2724 28.3116 23.9507 26.6634 25.3062 25.3055C26.6616 23.9476 28.3098 23.2693 30.2507 23.2705C32.1915 23.2717 33.8397 23.9501 35.1952 25.3055C36.5506 26.6609 37.2289 28.3091 37.2302 30.25C37.2302 31.0444 37.1061 31.8041 36.858 32.5288C36.6099 33.2536 36.2475 33.9136 35.7708 34.5088L40.2497 38.951C40.4208 39.1209 40.5063 39.3366 40.5063 39.5982C40.5063 39.8609 40.4214 40.0779 40.2515 40.249ZM10.2948 38.5C9.45148 38.5 8.74748 38.2177 8.18282 37.653C7.61815 37.0883 7.33521 36.3837 7.33398 35.5392V8.46083C7.33398 7.6175 7.61693 6.9135 8.18282 6.34883C8.74871 5.78417 9.45332 5.50122 10.2967 5.5H23.5205C23.925 5.5 24.3113 5.57944 24.6792 5.73833C25.047 5.89722 25.3636 6.1105 25.6288 6.37817L32.1207 12.87C32.3859 13.1364 32.5985 13.453 32.7587 13.8197C32.9188 14.1863 32.9988 14.5726 32.9988 14.9783V17.6018C32.9988 18.0345 32.8363 18.3951 32.5112 18.6835C32.1848 18.9732 31.7937 19.0771 31.3378 18.9952L30.7952 18.9292C30.6192 18.9072 30.437 18.8962 30.2488 18.8962C28.49 18.8962 26.8645 19.2579 25.3722 19.9815C23.8774 20.7051 22.602 21.6828 21.546 22.9148H14.6673C14.407 22.9148 14.1894 23.0028 14.0147 23.1788C13.8399 23.3548 13.7519 23.573 13.7507 23.8333C13.7494 24.0937 13.8374 24.3112 14.0147 24.486C14.1919 24.6608 14.4094 24.7488 14.6673 24.75H20.3433C19.8642 25.5897 19.503 26.4733 19.2598 27.401C19.0154 28.3299 18.898 29.2796 18.9078 30.25H14.6673C14.407 30.25 14.1894 30.338 14.0147 30.514C13.8399 30.69 13.7519 30.9082 13.7507 31.1685C13.7494 31.4288 13.8374 31.6464 14.0147 31.8212C14.1919 31.9959 14.4094 32.0833 14.6673 32.0833H19.0435C19.1865 32.9132 19.4071 33.7071 19.7053 34.4648C20.0035 35.2226 20.3879 35.9413 20.8585 36.6208C21.1457 37.0327 21.1934 37.4483 21.0015 37.8675C20.8096 38.2892 20.4833 38.5 20.0225 38.5H10.2948ZM23.834 7.33333V13.2C23.834 13.6156 23.9745 13.9639 24.2557 14.245C24.5368 14.5261 24.8851 14.6667 25.3007 14.6667H31.1673L23.834 7.33333Z" fill="#005BAA"/>
</svg>
