<svg width="40" height="40" viewBox="0 0 40 40" fill="none" xmlns="http://www.w3.org/2000/svg">
<path d="M30.368 34.5833H9.6347C9.05673 34.5598 8.48907 34.4224 7.96422 34.1792C7.43936 33.936 6.96762 33.5917 6.57597 33.166C6.18432 32.7403 5.88045 32.2416 5.68176 31.6983C5.48307 31.155 5.39345 30.5779 5.41804 30V25C5.41804 24.6685 5.54973 24.3505 5.78415 24.1161C6.01857 23.8817 6.33652 23.75 6.66804 23.75C6.99956 23.75 7.3175 23.8817 7.55192 24.1161C7.78634 24.3505 7.91804 24.6685 7.91804 25V30C7.87501 30.4949 8.02411 30.9873 8.33442 31.3752C8.64474 31.7631 9.09245 32.0167 9.5847 32.0833H30.368C30.8603 32.0167 31.308 31.7631 31.6183 31.3752C31.9286 30.9873 32.0777 30.4949 32.0347 30V25C32.0347 24.6685 32.1664 24.3505 32.4008 24.1161C32.6352 23.8817 32.9532 23.75 33.2847 23.75C33.6162 23.75 33.9342 23.8817 34.1686 24.1161C34.403 24.3505 34.5347 24.6685 34.5347 25V30C34.5846 31.159 34.1748 32.2907 33.3945 33.1491C32.6142 34.0074 31.5265 34.5229 30.368 34.5833Z" fill="#005BAA"/>
<path d="M19.9988 26.2507C19.8345 26.2515 19.6718 26.2195 19.5201 26.1565C19.3684 26.0935 19.2308 26.0009 19.1154 25.8841L12.4488 19.2174C12.228 18.9804 12.1078 18.667 12.1135 18.3432C12.1192 18.0193 12.2504 17.7104 12.4794 17.4814C12.7084 17.2523 13.0174 17.1211 13.3412 17.1154C13.6651 17.1097 13.9785 17.2299 14.2154 17.4507L19.9988 23.2341L25.7821 17.4507C26.0191 17.2299 26.3325 17.1097 26.6563 17.1154C26.9801 17.1211 27.2891 17.2523 27.5181 17.4814C27.7472 17.7104 27.8783 18.0193 27.8841 18.3432C27.8898 18.667 27.7696 18.9804 27.5488 19.2174L20.8821 25.8841C20.7667 26.0009 20.6291 26.0935 20.4774 26.1565C20.3257 26.2195 20.163 26.2515 19.9988 26.2507Z" fill="#005BAA"/>
<path d="M20 26.2493C19.6698 26.245 19.3544 26.112 19.1209 25.8785C18.8874 25.645 18.7543 25.3295 18.75 24.9993V6.66602C18.75 6.3345 18.8817 6.01655 19.1161 5.78213C19.3505 5.54771 19.6685 5.41602 20 5.41602C20.3315 5.41602 20.6495 5.54771 20.8839 5.78213C21.1183 6.01655 21.25 6.3345 21.25 6.66602V24.9993C21.2457 25.3295 21.1126 25.645 20.8791 25.8785C20.6456 26.112 20.3302 26.245 20 26.2493Z" fill="#005BAA"/>
</svg>
