<svg width="44" height="44" viewBox="0 0 44 44" fill="#FFA500" xmlns="http://www.w3.org/2000/svg">
<g clip-path="url(#clip0_1716_18)">
<path d="M21.4188 3.05566C10.9591 3.05566 2.44434 10.7312 2.44434 20.1668C2.44434 29.6023 10.9591 37.2779 21.4188 37.2779C23.3757 37.2756 25.3231 36.9959 27.206 36.4468L33.7641 40.749C33.9431 40.8674 34.1498 40.934 34.3624 40.9417C34.5749 40.9495 34.7856 40.8983 34.9724 40.7933C35.1591 40.6883 35.315 40.5335 35.4238 40.3451C35.5325 40.1567 35.59 39.9416 35.5904 39.7223V31.4968C37.0743 30.0297 38.2584 28.2715 39.073 26.3258C39.8877 24.38 40.3164 22.2859 40.334 20.1668C40.3933 10.7312 31.8785 3.05566 21.4188 3.05566ZM20.1499 11.159C20.1304 10.9213 20.159 10.682 20.2339 10.4563C20.3088 10.2306 20.4284 10.0234 20.585 9.84781C20.7416 9.67219 20.9319 9.53199 21.1438 9.43608C21.3557 9.34018 21.5847 9.29066 21.8161 9.29066C22.0476 9.29066 22.2765 9.34018 22.4884 9.43608C22.7003 9.53199 22.8906 9.67219 23.0472 9.84781C23.2038 10.0234 23.3234 10.2306 23.3983 10.4563C23.4732 10.682 23.5018 10.9213 23.4823 11.159V23.1001C23.5018 23.3378 23.4732 23.5771 23.3983 23.8028C23.3234 24.0285 23.2038 24.2357 23.0472 24.4113C22.8906 24.5869 22.7003 24.7271 22.4884 24.823C22.2765 24.9189 22.0476 24.9684 21.8161 24.9684C21.5847 24.9684 21.3557 24.9189 21.1438 24.823C20.9319 24.7271 20.7416 24.5869 20.585 24.4113C20.4284 24.2357 20.3088 24.0285 20.2339 23.8028C20.159 23.5771 20.1304 23.3378 20.1499 23.1001V11.159ZM21.822 32.3646C21.3834 32.3646 20.9547 32.2305 20.59 31.9794C20.2253 31.7282 19.941 31.3713 19.7732 30.9536C19.6054 30.536 19.5614 30.0765 19.647 29.6331C19.7326 29.1898 19.9438 28.7825 20.2539 28.4629C20.5641 28.1432 20.9592 27.9255 21.3894 27.8374C21.8196 27.7492 22.2655 27.7944 22.6707 27.9674C23.0759 28.1404 23.4223 28.4334 23.6659 28.8092C23.9096 29.1851 24.0397 29.627 24.0397 30.079C24.0365 30.683 23.8015 31.2612 23.386 31.6872C22.9704 32.1132 22.4081 32.3523 21.822 32.3523V32.3646Z" fill="##FFA500"/>
</g>
<defs>
<clipPath id="clip0_1716_18">
<rect width="44" height="44" fill="#FFA500"/>
</clipPath>
</defs>
</svg>
