<svg xmlns="http://www.w3.org/2000/svg" xmlns:xlink="http://www.w3.org/1999/xlink" width="198" height="198" viewBox="0 0 198 198"><defs><style>.a{fill:#e2ecf5;}.b{fill:#96bbdc;}.c{fill:#fff;}.d{fill:#f8bc1e;}.e{fill:#f79726;}.f{fill:#f5a922;}.g{fill:#e8732d;}.h{fill:#eb5849;}.i{fill:#e3e4e2;}.j{filter:url(#a);}</style><filter id="a" x="0" y="0" width="198" height="198" filterUnits="userSpaceOnUse"><feOffset dy="-3" input="SourceAlpha"/><feGaussianBlur stdDeviation="5" result="b"/><feFlood flood-opacity="0.161"/><feComposite operator="in" in2="b"/><feComposite in="SourceGraphic"/></filter></defs><g transform="translate(-80 -257)"><g transform="translate(95 275)"><g class="j" transform="matrix(1, 0, 0, 1, -15, -18)"><circle class="a" cx="84" cy="84" r="84" transform="translate(15 18)"/></g><ellipse class="b" cx="69" cy="68.5" rx="69" ry="68.5" transform="translate(15 16)"/><ellipse class="c" cx="51.5" cy="52" rx="51.5" ry="52" transform="translate(33 33)"/></g><g transform="translate(101 301)"><path class="d" d="M108.248,153.269v31.283l-30.124,9.269L48,184.552V153.269L78.124,144Z" transform="translate(0 -102.621)"/><path class="e" d="M286.124,208,256,217.269v31.283l30.124-9.269Z" transform="translate(-177.876 -157.352)"/><path class="f" d="M48,208l30.124,9.269v31.283L48,239.283Z" transform="translate(0 -157.352)"/><g transform="translate(62.733 77.275)"><path class="g" d="M0,0H2.424V2.317H0Z" transform="matrix(0.956, -0.294, 0.294, 0.956, 30.12, 3.565)"/><path class="g" d="M0,0H2.424V2.317H0Z" transform="matrix(0.956, -0.294, 0.294, 0.956, 34.756, 2.139)"/><path class="g" d="M0,0H2.424V2.317H0Z" transform="matrix(0.956, -0.294, 0.294, 0.956, 39.391, 0.713)"/><path class="g" d="M0,0H2.317V2.424H0Z" transform="matrix(0.294, -0.956, 0.956, 0.294, 0, 5.755)"/><path class="g" d="M0,0H2.317V2.424H0Z" transform="matrix(0.294, -0.956, 0.956, 0.294, 4.635, 7.179)"/><path class="g" d="M0,0H2.317V2.424H0Z" transform="matrix(0.294, -0.956, 0.956, 0.294, 9.269, 8.604)"/></g><path class="h" d="M199.172,35.586c0,10.428-11.586,18.538-11.586,18.538S176,46.014,176,35.586a11.586,11.586,0,0,1,23.172,0Z" transform="translate(-109.462)"/><path class="g" d="M112,272.255l11.586,3.565v-5.793L112,266.462Z" transform="translate(-54.731 -207.347)"/><path class="g" d="M331.586,272.255,320,275.82v-5.793l11.586-3.565Z" transform="translate(-232.607 -207.347)"/><ellipse class="i" cx="6" cy="5.5" rx="6" ry="5.5" transform="translate(72 30)"/></g></g></svg>