<!DOCTYPE svg PUBLIC "-//W3C//DTD SVG 1.1//EN" "http://www.w3.org/Graphics/SVG/1.1/DTD/svg11.dtd">
<!-- Uploaded to: SVG Repo, www.svgrepo.com, Transformed by: SVG Repo Mixer Tools -->
<svg width="800px" height="800px" viewBox="0 0 24 24" id="magicoon-Regular" xmlns="http://www.w3.org/2000/svg" fill="#000000">
<g id="SVGRepo_bgCarrier" stroke-width="0"/>
<g id="SVGRepo_tracerCarrier" stroke-linecap="round" stroke-linejoin="round"/>
<g id="SVGRepo_iconCarrier"> <defs> <style>.cls-1{fill:#787878;}</style> </defs> <title>exclamation-circle</title> <g id="exclamation-circle-Regular"> <path id="exclamation-circle-Regular-2" data-name="exclamation-circle-Regular" class="cls-1" d="M12,2.25A9.75,9.75,0,1,0,21.75,12,9.761,9.761,0,0,0,12,2.25Zm0,18A8.25,8.25,0,1,1,20.25,12,8.259,8.259,0,0,1,12,20.25ZM13,16a1,1,0,1,1-1-1A1,1,0,0,1,13,16Zm-1.75-4V8a.75.75,0,0,1,1.5,0v4a.75.75,0,0,1-1.5,0Z"/> </g> </g>
</svg>