<svg width="40" height="41" viewBox="0 0 40 41" fill="none" xmlns="http://www.w3.org/2000/svg">
<rect width="40" height="40.0238" rx="20" fill="#F9FCFF"/>
<path d="M23.1111 8C21.7081 8.00126 20.3253 8.33431 19.0756 8.97196C17.8259 9.6096 16.7447 10.5338 15.9203 11.669C15.0959 12.8042 14.5517 14.1183 14.3321 15.504C14.1125 16.8897 14.2237 18.3077 14.6567 19.6422L8.26 26.0378C8.17748 26.1204 8.11205 26.2184 8.06743 26.3264C8.02282 26.4343 7.99991 26.5499 8 26.6667V31.1111C8 31.3469 8.09365 31.573 8.26035 31.7397C8.42705 31.9064 8.65314 32 8.88889 32H13.3333C13.5691 32 13.7952 31.9064 13.9619 31.7397C14.1286 31.573 14.2222 31.3469 14.2222 31.1111V29.3333H16C16.2357 29.3333 16.4618 29.2397 16.6285 29.073C16.7952 28.9063 16.8889 28.6802 16.8889 28.4444V26.6667H18.6667C18.7834 26.6668 18.8991 26.6438 19.007 26.5992C19.1149 26.5546 19.2129 26.4892 19.2956 26.4067L20.3578 25.3433C21.5795 25.74 22.8726 25.8672 24.1482 25.7161C25.4237 25.565 26.6514 25.1393 27.7466 24.4682C28.8419 23.7972 29.7786 22.8967 30.4925 21.8289C31.2063 20.761 31.6803 19.5512 31.8817 18.2826C32.083 17.014 32.0071 15.7168 31.6591 14.4804C31.3111 13.244 30.6992 12.0977 29.8656 11.1204C29.0321 10.1432 27.9966 9.35817 26.8306 8.81948C25.6645 8.28079 24.3956 8.00121 23.1111 8ZM25.3333 16.4444C24.9817 16.4444 24.638 16.3402 24.3457 16.1448C24.0533 15.9495 23.8254 15.6718 23.6909 15.347C23.5563 15.0221 23.5211 14.6647 23.5897 14.3198C23.6583 13.975 23.8276 13.6582 24.0763 13.4096C24.3249 13.161 24.6416 12.9916 24.9865 12.923C25.3314 12.8545 25.6888 12.8897 26.0137 13.0242C26.3385 13.1588 26.6162 13.3866 26.8115 13.679C27.0068 13.9713 27.1111 14.3151 27.1111 14.6667C27.1111 15.1382 26.9238 15.5903 26.5904 15.9237C26.257 16.2571 25.8048 16.4444 25.3333 16.4444Z" fill="#005BAA"/>
</svg>
