<svg width="190" height="190" viewBox="0 0 190 190" fill="none" xmlns="http://www.w3.org/2000/svg">
<path d="M79.1667 126.665H55.4167C47.0181 126.665 38.9636 123.329 33.025 117.39C27.0863 111.452 23.75 103.397 23.75 94.9987C23.75 86.6002 27.0863 78.5456 33.025 72.607C38.9636 66.6683 47.0181 63.332 55.4167 63.332H79.1667M126.667 94.9987H63.3333M110.833 126.665H134.583C142.982 126.665 151.036 123.329 156.975 117.39C162.914 111.452 166.25 103.397 166.25 94.9987C166.25 86.6002 162.914 78.5456 156.975 72.607C151.036 66.6683 142.982 63.332 134.583 63.332H110.833" stroke="#005BAA" stroke-width="12" stroke-linecap="round" stroke-linejoin="round"/>
<path d="M138.302 134.794L153.69 109.042C154.545 107.653 156.575 107.653 157.323 109.042L172.71 134.794C173.565 136.183 172.497 138 170.894 138H140.119C138.516 138 137.448 136.183 138.302 134.794Z" fill="#FFC107"/>
<path d="M154.029 130.334C154.029 130.12 154.029 129.906 154.136 129.693C154.242 129.479 154.349 129.372 154.456 129.158C154.563 128.945 154.777 128.945 154.99 128.838C155.204 128.731 155.418 128.731 155.632 128.731C155.845 128.731 156.166 128.731 156.38 128.838C156.593 128.945 156.807 129.052 156.914 129.158C157.021 129.265 157.128 129.479 157.234 129.693C157.341 129.906 157.341 130.12 157.341 130.334C157.341 130.548 157.341 130.761 157.234 130.975C157.128 131.189 157.021 131.296 156.914 131.509C156.807 131.723 156.593 131.723 156.38 131.83C156.166 131.937 155.952 131.937 155.632 131.937C155.311 131.937 155.097 131.937 154.99 131.83C154.884 131.723 154.563 131.616 154.456 131.509C154.349 131.402 154.242 131.189 154.136 130.975C154.029 130.761 154.029 130.548 154.029 130.334ZM157.021 127.021H154.563L154.136 116.549H157.341L157.021 127.021Z" fill="white"/>
</svg>
