<svg width="84" height="29" viewBox="0 0 84 29" fill="none" xmlns="http://www.w3.org/2000/svg">
<path d="M30.5599 28.5H25.2347V19.1855C25.2347 17.6393 24.9317 16.4456 24.3255 15.6045C23.7194 14.7633 22.8597 14.3428 21.7464 14.3428C20.6084 14.3428 19.7178 14.7695 19.0746 15.623C18.4437 16.4766 18.1283 17.6641 18.1283 19.1855V28.5H12.8031V19.1855C12.8031 17.6393 12.5 16.4456 11.8939 15.6045C11.2878 14.7633 10.4219 14.3428 9.29625 14.3428C8.1706 14.3428 7.28616 14.7695 6.64293 15.623C6.01207 16.4766 5.69664 17.6641 5.69664 19.1855V28.5H0.371445V9.94531H4.62047L4.80602 13.0068C5.4245 11.8812 6.25328 11.0277 7.29234 10.4463C8.34378 9.86491 9.5622 9.57422 10.9476 9.57422C12.3949 9.57422 13.6442 9.87728 14.6957 10.4834C15.7471 11.0895 16.5573 11.9616 17.1263 13.0996C17.7572 11.9492 18.5921 11.0771 19.6312 10.4834C20.6826 9.87728 21.9258 9.57422 23.3607 9.57422C25.6244 9.57422 27.3871 10.2979 28.6488 11.7451C29.9229 13.18 30.5599 15.1901 30.5599 17.7754V28.5ZM42.7882 28.8711C40.8833 28.8711 39.1762 28.4567 37.6671 27.6279C36.158 26.7868 34.9705 25.6426 34.1046 24.1953C33.2511 22.7357 32.8243 21.0781 32.8243 19.2227C32.8243 17.3796 33.2511 15.7344 34.1046 14.2871C34.9705 12.8275 36.158 11.6771 37.6671 10.8359C39.1762 9.99479 40.8833 9.57422 42.7882 9.57422C44.6932 9.57422 46.3878 9.99479 47.8722 10.8359C49.3689 11.6771 50.5441 12.8275 51.3976 14.2871C52.2635 15.7344 52.6964 17.3796 52.6964 19.2227C52.6964 21.0781 52.2635 22.7357 51.3976 24.1953C50.5441 25.6426 49.3689 26.7868 47.8722 27.6279C46.3878 28.4567 44.6932 28.8711 42.7882 28.8711ZM42.7696 24.1025C43.6232 24.1025 44.3839 23.8923 45.0519 23.4717C45.7322 23.0387 46.2641 22.4574 46.6476 21.7275C47.0434 20.9854 47.2413 20.1442 47.2413 19.2041C47.2413 18.2764 47.0434 17.4476 46.6476 16.7178C46.2641 15.988 45.7322 15.4128 45.0519 14.9922C44.3839 14.5592 43.6232 14.3428 42.7696 14.3428C41.9038 14.3428 41.1307 14.5592 40.4503 14.9922C39.7823 15.4128 39.2504 15.988 38.8546 16.7178C38.4711 17.4476 38.2794 18.2764 38.2794 19.2041C38.2794 20.1442 38.4711 20.9854 38.8546 21.7275C39.2504 22.4574 39.7823 23.0387 40.4503 23.4717C41.1307 23.8923 41.9038 24.1025 42.7696 24.1025ZM60.0077 28.5H55.3319V0.667969H60.6571V12.0605C61.4364 11.2812 62.3394 10.6751 63.3661 10.2422C64.4052 9.79688 65.5308 9.57422 66.743 9.57422C68.4501 9.57422 69.9654 9.99479 71.2889 10.8359C72.6125 11.6647 73.6578 12.8089 74.4247 14.2686C75.1916 15.7158 75.5751 17.3672 75.5751 19.2227C75.5751 21.0658 75.1916 22.7171 74.4247 24.1768C73.6578 25.6364 72.6125 26.7868 71.2889 27.6279C69.9654 28.4567 68.4501 28.8711 66.743 28.8711C65.4318 28.8711 64.2196 28.6175 63.1063 28.1104C62.0054 27.5908 61.0591 26.8796 60.2675 25.9766L60.0077 28.5ZM65.3886 24.1025C66.2915 24.1025 67.0956 23.8923 67.8007 23.4717C68.5181 23.0511 69.0809 22.4697 69.4891 21.7275C69.9097 20.9854 70.12 20.1442 70.12 19.2041C70.12 18.2764 69.9097 17.4476 69.4891 16.7178C69.0809 15.9756 68.5181 15.3942 67.8007 14.9736C67.0956 14.5531 66.2915 14.3428 65.3886 14.3428C64.535 14.3428 63.7557 14.5345 63.0507 14.918C62.358 15.3014 61.8013 15.8271 61.3807 16.4951C60.9602 17.1631 60.719 17.93 60.6571 18.7959V19.6123C60.719 20.4782 60.9602 21.2513 61.3807 21.9316C61.8013 22.5996 62.358 23.1315 63.0507 23.5273C63.7434 23.9108 64.5227 24.1025 65.3886 24.1025ZM80.901 5.51074C80.1959 5.51074 79.6022 5.26335 79.1198 4.76855C78.6373 4.27376 78.3961 3.67383 78.3961 2.96875C78.3961 2.26367 78.6373 1.66992 79.1198 1.1875C79.6022 0.692708 80.1959 0.445312 80.901 0.445312C81.6185 0.445312 82.2184 0.692708 82.7008 1.1875C83.1956 1.66992 83.443 2.26367 83.443 2.96875C83.443 3.67383 83.1956 4.27376 82.7008 4.76855C82.2184 5.26335 81.6185 5.51074 80.901 5.51074ZM83.5729 28.5H78.2477V9.94531H83.5729V28.5Z" fill="#005BAA"/>
</svg>
