<svg xmlns="http://www.w3.org/2000/svg" width="62.669" height="29.809" viewBox="0 0 62.669 29.809"><defs><style>.a,.b{fill:#005ea6;}.a{opacity:0;}</style></defs><g transform="translate(0 0)"><g transform="translate(0 0)"><rect class="a" width="29.809" height="62.669" transform="translate(0 29.809) rotate(-90)"/><path class="b" d="M71.446,101.649v5.725H68.07v-5.452c0-1.642-.822-2.139-1.689-2.139-1.027,0-1.8.547-1.825,2.236v5.36H61.174v-5.457c0-1.642-.82-2.139-1.665-2.139-.914,0-1.848.365-1.848,2.139v5.452H54.29V96.743h3.376v1.963a2.892,2.892,0,0,1,2.879-2.236,3.529,3.529,0,0,1,3.376,2.013,4.016,4.016,0,0,1,3.49-2.013C70.077,96.47,71.446,98.386,71.446,101.649Z" transform="translate(-47.459 -84.331)"/><path class="b" d="M203.51,102.037a5.789,5.789,0,1,1,5.773,5.544A5.575,5.575,0,0,1,203.51,102.037Zm8.122,0a2.351,2.351,0,1,0-2.349,2.418A2.326,2.326,0,0,0,211.632,102.037Z" transform="translate(-177.902 -84.331)"/><path class="b" d="M321.07,64.911a5.252,5.252,0,0,1-5.179,5.544,4.322,4.322,0,0,1-3.285-1.392v1.185H309.23V54h3.376v6.753a4.318,4.318,0,0,1,3.285-1.392A5.259,5.259,0,0,1,321.07,64.911Zm-3.423,0a2.465,2.465,0,1,0-2.464,2.391A2.436,2.436,0,0,0,317.648,64.911Z" transform="translate(-270.32 -47.205)"/><path class="b" d="M414,56.543a2.024,2.024,0,0,1,2.1-1.963,1.984,1.984,0,0,1,2.053,1.963A2.012,2.012,0,0,1,416.1,58.5,2.053,2.053,0,0,1,414,56.543Zm.411,3.581h3.376V70.755h-3.372Z" transform="translate(-361.907 -47.712)"/></g></g></svg>