<svg width="44" height="45" viewBox="0 0 44 45" fill="none" xmlns="http://www.w3.org/2000/svg">
<path d="M9.25 36C8.35625 36 7.59142 35.682 6.9555 35.0461C6.31958 34.4102 6.00108 33.6448 6 32.75V13.25C6 12.3562 6.3185 11.5914 6.9555 10.9555C7.5925 10.3196 8.35733 10.0011 9.25 10H35.25C36.1437 10 36.9091 10.3185 37.5461 10.9555C38.1831 11.5925 38.5011 12.3573 38.5 13.25V32.75C38.5 33.6437 38.182 34.4091 37.5461 35.0461C36.9102 35.6831 36.1448 36.0011 35.25 36H9.25ZM22.25 24.625L9.25 16.5V32.75H35.25V16.5L22.25 24.625ZM22.25 21.375L35.25 13.25H9.25L22.25 21.375ZM9.25 16.5V13.25V32.75V16.5Z" fill="#005BAA"/>
</svg>
