<svg width="100" height="100" viewBox="0 0 100 100" fill="none" xmlns="http://www.w3.org/2000/svg">
<g opacity="0.03">
<path d="M100 50C100 77.6142 77.6142 100 50 100C22.3858 100 0 77.6142 0 50C0 22.3858 22.3858 0 50 0C77.6142 0 100 22.3858 100 50Z" fill="#005BAA"/>
<path d="M77.2803 67.5H67.4707V50.3418C67.4707 47.4935 66.9124 45.2946 65.7959 43.7451C64.6794 42.1956 63.0957 41.4209 61.0449 41.4209C58.9486 41.4209 57.3079 42.207 56.123 43.7793C54.9609 45.3516 54.3799 47.5391 54.3799 50.3418V67.5H44.5703V50.3418C44.5703 47.4935 44.012 45.2946 42.8955 43.7451C41.779 42.1956 40.1839 41.4209 38.1104 41.4209C36.0368 41.4209 34.4076 42.207 33.2227 43.7793C32.0605 45.3516 31.4795 47.5391 31.4795 50.3418V67.5H21.6699V33.3203H29.4971L29.8389 38.96C30.9782 36.8864 32.5049 35.3141 34.4189 34.2432C36.3558 33.1722 38.6003 32.6367 41.1523 32.6367C43.8184 32.6367 46.1198 33.195 48.0566 34.3115C49.9935 35.4281 51.486 37.0345 52.5342 39.1309C53.6963 37.0117 55.2344 35.4053 57.1484 34.3115C59.0853 33.195 61.3753 32.6367 64.0186 32.6367C68.1885 32.6367 71.4355 33.9697 73.7598 36.6357C76.1068 39.279 77.2803 42.9818 77.2803 47.7441V67.5Z" fill="white"/>
</g>
</svg>
