<svg width="127" height="43" viewBox="0 0 127 43" fill="none" xmlns="http://www.w3.org/2000/svg">
<path d="M44.8242 42H36.9766V28.2734C36.9766 25.9948 36.5299 24.2357 35.6367 22.9961C34.7435 21.7565 33.4766 21.1367 31.8359 21.1367C30.1589 21.1367 28.8464 21.7656 27.8984 23.0234C26.9688 24.2812 26.5039 26.0312 26.5039 28.2734V42H18.6562V28.2734C18.6562 25.9948 18.2096 24.2357 17.3164 22.9961C16.4232 21.7565 15.1471 21.1367 13.4883 21.1367C11.8294 21.1367 10.526 21.7656 9.57812 23.0234C8.64844 24.2812 8.18359 26.0312 8.18359 28.2734V42H0.335938V14.6562H6.59766L6.87109 19.168C7.78255 17.5091 9.00391 16.2513 10.5352 15.3945C12.0846 14.5378 13.8802 14.1094 15.9219 14.1094C18.0547 14.1094 19.8958 14.556 21.4453 15.4492C22.9948 16.3424 24.1888 17.6276 25.0273 19.3047C25.957 17.6094 27.1875 16.3242 28.7188 15.4492C30.2682 14.556 32.1003 14.1094 34.2148 14.1094C37.5508 14.1094 40.1484 15.1758 42.0078 17.3086C43.8854 19.4232 44.8242 22.3854 44.8242 26.1953V42ZM63.9648 42.5469C61.1576 42.5469 58.6419 41.9362 56.418 40.7148C54.194 39.4753 52.444 37.7891 51.168 35.6562C49.9102 33.5052 49.2812 31.0625 49.2812 28.3281C49.2812 25.612 49.9102 23.1875 51.168 21.0547C52.444 18.9036 54.194 17.2083 56.418 15.9688C58.6419 14.7292 61.1576 14.1094 63.9648 14.1094C66.7721 14.1094 69.2695 14.7292 71.457 15.9688C73.6628 17.2083 75.3945 18.9036 76.6523 21.0547C77.9284 23.1875 78.5664 25.612 78.5664 28.3281C78.5664 31.0625 77.9284 33.5052 76.6523 35.6562C75.3945 37.7891 73.6628 39.4753 71.457 40.7148C69.2695 41.9362 66.7721 42.5469 63.9648 42.5469ZM63.9375 35.5195C65.1953 35.5195 66.3164 35.2096 67.3008 34.5898C68.3034 33.9518 69.0872 33.0951 69.6523 32.0195C70.2357 30.9258 70.5273 29.6862 70.5273 28.3008C70.5273 26.9336 70.2357 25.7122 69.6523 24.6367C69.0872 23.5612 68.3034 22.7135 67.3008 22.0938C66.3164 21.4557 65.1953 21.1367 63.9375 21.1367C62.6615 21.1367 61.5221 21.4557 60.5195 22.0938C59.5352 22.7135 58.7513 23.5612 58.168 24.6367C57.6029 25.7122 57.3203 26.9336 57.3203 28.3008C57.3203 29.6862 57.6029 30.9258 58.168 32.0195C58.7513 33.0951 59.5352 33.9518 60.5195 34.5898C61.5221 35.2096 62.6615 35.5195 63.9375 35.5195ZM90.4609 42H83.5703V0.984375H91.418V17.7734C92.5664 16.625 93.8971 15.7318 95.4102 15.0938C96.9414 14.4375 98.6003 14.1094 100.387 14.1094C102.902 14.1094 105.135 14.7292 107.086 15.9688C109.036 17.1901 110.577 18.8763 111.707 21.0273C112.837 23.1602 113.402 25.5938 113.402 28.3281C113.402 31.0443 112.837 33.4779 111.707 35.6289C110.577 37.7799 109.036 39.4753 107.086 40.7148C105.135 41.9362 102.902 42.5469 100.387 42.5469C98.4544 42.5469 96.668 42.1732 95.0273 41.4258C93.4049 40.6602 92.0104 39.612 90.8438 38.2812L90.4609 42ZM98.3906 35.5195C99.7214 35.5195 100.906 35.2096 101.945 34.5898C103.003 33.9701 103.832 33.1133 104.434 32.0195C105.053 30.9258 105.363 29.6862 105.363 28.3008C105.363 26.9336 105.053 25.7122 104.434 24.6367C103.832 23.543 103.003 22.6862 101.945 22.0664C100.906 21.4466 99.7214 21.1367 98.3906 21.1367C97.1328 21.1367 95.9844 21.4193 94.9453 21.9844C93.9245 22.5495 93.1042 23.3242 92.4844 24.3086C91.8646 25.293 91.5091 26.4232 91.418 27.6992V28.9023C91.5091 30.1784 91.8646 31.3177 92.4844 32.3203C93.1042 33.3047 93.9245 34.0885 94.9453 34.6719C95.9661 35.237 97.1146 35.5195 98.3906 35.5195ZM122.371 8.12109C121.332 8.12109 120.457 7.75651 119.746 7.02734C119.035 6.29818 118.68 5.41406 118.68 4.375C118.68 3.33594 119.035 2.46094 119.746 1.75C120.457 1.02083 121.332 0.65625 122.371 0.65625C123.428 0.65625 124.312 1.02083 125.023 1.75C125.753 2.46094 126.117 3.33594 126.117 4.375C126.117 5.41406 125.753 6.29818 125.023 7.02734C124.312 7.75651 123.428 8.12109 122.371 8.12109ZM126.309 42H118.461V14.6562H126.309V42Z" fill="#005BAA"/>
</svg>
