<svg xmlns="http://www.w3.org/2000/svg" width="167.752" height="79.792" viewBox="0 0 167.752 79.792"><defs><style>.a,.b{fill:#fff;}.a{opacity:0;}</style></defs><g transform="translate(0 0)"><g transform="translate(0 0)"><rect class="a" width="79.792" height="167.753" transform="translate(0 79.792) rotate(-90)"/><path class="b" d="M100.212,110.333v15.325H91.175V111.064c0-4.4-2.2-5.726-4.52-5.726-2.748,0-4.823,1.465-4.884,5.985v14.348H72.717V111.064c0-4.4-2.2-5.726-4.456-5.726-2.445,0-4.948.977-4.948,5.726v14.594H54.29V97.2h9.037v5.254c.734-4.153,4.823-5.985,7.706-5.985a9.448,9.448,0,0,1,9.037,5.389c1.954-3.846,6.352-5.389,9.343-5.389C96.547,96.47,100.212,101.6,100.212,110.333Z" transform="translate(-36.004 -63.977)"/><path class="b" d="M203.51,111.371c0-9.04,7.329-14.9,15.453-14.9s15.51,5.861,15.51,14.9c0,8.976-7.39,14.84-15.51,14.84S203.51,120.347,203.51,111.371Zm21.742,0a6.293,6.293,0,1,0-6.288,6.474A6.228,6.228,0,0,0,225.252,111.371Z" transform="translate(-134.964 -63.977)"/><path class="b" d="M340.925,83.206c0,9.222-6.72,14.84-13.863,14.84-2.934,0-6.716-1.1-8.794-3.725v3.173H309.23V54h9.037V72.077c2.078-2.627,5.861-3.725,8.794-3.725C334.205,68.365,340.925,73.983,340.925,83.206Zm-9.161,0a6.6,6.6,0,1,0-6.595,6.4A6.519,6.519,0,0,0,331.763,83.206Z" transform="translate(-205.076 -35.812)"/><path class="b" d="M414,59.834a5.418,5.418,0,0,1,5.618-5.254,5.311,5.311,0,0,1,5.5,5.254,5.386,5.386,0,0,1-5.5,5.251A5.5,5.5,0,0,1,414,59.834Zm1.1,9.586h9.037V97.878h-9.027Z" transform="translate(-274.557 -36.196)"/></g></g></svg>