<svg xmlns="http://www.w3.org/2000/svg" width="154" height="53" viewBox="0 0 154 53"><defs><style>.a{fill:#fff;stroke-width:3px;}.a,.c{stroke:#005baa;}.b,.c{fill:#005baa;}.b{font-size:24px;font-family:SegoeUI, Segoe UI;}.d{stroke:none;}.e{fill:none;}</style></defs><g transform="translate(-751 -732)"><g class="a" transform="translate(751 732)"><rect class="d" width="154" height="53" rx="10"/><rect class="e" x="1.5" y="1.5" width="151" height="50" rx="8.5"/></g><g transform="translate(10 1)"><text class="b" transform="translate(835 766)"><tspan x="-16.008" y="0">No</tspan></text><g transform="translate(783.78 746.78)"><path class="c" d="M11.261,0A11.261,11.261,0,1,0,22.523,11.261,11.274,11.274,0,0,0,11.261,0Zm0,21.544A10.282,10.282,0,1,1,21.544,11.261,10.294,10.294,0,0,1,11.261,21.544Z"/><path class="c" d="M98.938,129.469a1.469,1.469,0,1,0-1.469,1.469A1.471,1.471,0,0,0,98.938,129.469Zm-1.959,0a.49.49,0,1,1,.49.49A.49.49,0,0,1,96.979,129.469Z" transform="translate(-90.124 -120.166)"/><path class="c" d="M225.469,128a1.469,1.469,0,1,0,1.469,1.469A1.471,1.471,0,0,0,225.469,128Zm0,1.959a.49.49,0,1,1,.49-.49A.49.49,0,0,1,225.469,129.959Z" transform="translate(-210.29 -120.166)"/><path class="c" d="M108.9,224a6.405,6.405,0,0,0-4.771,2.122.49.49,0,0,0,.73.653,5.447,5.447,0,0,1,8.084,0,.49.49,0,0,0,.73-.653A6.406,6.406,0,0,0,108.9,224Z" transform="translate(-97.637 -210.29)"/></g></g></g></svg>