<svg width="44" height="44" viewBox="0 0 44 44" fill="none" xmlns="http://www.w3.org/2000/svg">
<g clip-path="url(#clip0_5360_2019)">
<path d="M22.0246 7C13.7423 7 7 13.0777 7 20.5491C7 28.0205 13.7423 34.0982 22.0246 34.0982C23.5742 34.0964 25.1161 33.8749 26.6071 33.4401L31.8 36.8468C31.9417 36.9405 32.1054 36.9932 32.2737 36.9994C32.442 37.0056 32.6089 36.965 32.7567 36.8818C32.9046 36.7987 33.028 36.6761 33.1141 36.5269C33.2002 36.3777 33.2458 36.2074 33.2461 36.0338V29.5206C34.4211 28.3589 35.3587 26.9667 36.0037 25.426C36.6488 23.8853 36.9883 22.2271 37.0022 20.5491C37.0492 13.0777 30.3069 7 22.0246 7ZM21.0198 13.4165C21.0044 13.2283 21.0271 13.0388 21.0864 12.8601C21.1457 12.6814 21.2403 12.5173 21.3643 12.3782C21.4884 12.2392 21.639 12.1282 21.8068 12.0522C21.9746 11.9763 22.1559 11.9371 22.3392 11.9371C22.5224 11.9371 22.7037 11.9763 22.8715 12.0522C23.0393 12.1282 23.19 12.2392 23.314 12.3782C23.438 12.5173 23.5327 12.6814 23.592 12.8601C23.6513 13.0388 23.6739 13.2283 23.6585 13.4165V22.8718C23.6739 23.06 23.6513 23.2495 23.592 23.4282C23.5327 23.6069 23.438 23.771 23.314 23.9101C23.19 24.0491 23.0393 24.1601 22.8715 24.2361C22.7037 24.312 22.5224 24.3512 22.3392 24.3512C22.1559 24.3512 21.9746 24.312 21.8068 24.2361C21.639 24.1601 21.4884 24.0491 21.3643 23.9101C21.2403 23.771 21.1457 23.6069 21.0864 23.4282C21.0271 23.2495 21.0044 23.06 21.0198 22.8718V13.4165ZM22.3439 30.2077C21.9966 30.2077 21.6571 30.1016 21.3683 29.9027C21.0795 29.7038 20.8544 29.4212 20.7215 29.0905C20.5886 28.7598 20.5539 28.3959 20.6216 28.0449C20.6894 27.6938 20.8566 27.3713 21.1022 27.1182C21.3478 26.8651 21.6607 26.6928 22.0013 26.6229C22.3419 26.5531 22.695 26.5889 23.0159 26.7259C23.3367 26.8629 23.611 27.0949 23.8039 27.3925C23.9969 27.6901 24.0999 28.04 24.0999 28.3979C24.0974 28.8762 23.9113 29.3341 23.5822 29.6714C23.2532 30.0087 22.808 30.198 22.3439 30.198V30.2077Z" fill="#005BAA"/>
</g>
<defs>
<clipPath id="clip0_5360_2019">
<rect width="44" height="44" fill="white"/>
</clipPath>
</defs>
</svg>
