<svg width="34" height="34" viewBox="0 0 34 34" fill="none" xmlns="http://www.w3.org/2000/svg">
<path d="M0 4C0 1.79086 1.79086 0 4 0H30C32.2091 0 34 1.79086 34 4V30C34 32.2091 32.2091 34 30 34H4C1.79086 34 0 32.2091 0 30V4Z" fill="white"/>
<path d="M10.2997 24.1986L7.82736 26.6709C7.48697 27.0113 7.09713 27.0876 6.65785 26.8999C6.21857 26.7121 5.99929 26.376 6 25.8916V9.14983C6 8.55863 6.21068 8.0527 6.63205 7.63205C7.05342 7.2114 7.55934 7.00072 8.14983 7H25.3485C25.9397 7 26.4459 7.21068 26.8673 7.63205C27.2887 8.05342 27.499 8.55934 27.4983 9.14983V22.0488C27.4983 22.64 27.288 23.1463 26.8673 23.5676C26.4467 23.989 25.9404 24.1993 25.3485 24.1986H10.2997ZM16.7491 20.9739C17.0537 20.9739 17.3092 20.8707 17.5156 20.6643C17.7219 20.4579 17.8248 20.2028 17.8241 19.899C17.8233 19.5951 17.7201 19.34 17.5145 19.1336C17.3088 18.9272 17.0537 18.8241 16.7491 18.8241C16.4446 18.8241 16.1895 18.9272 15.9838 19.1336C15.7781 19.34 15.6749 19.5951 15.6742 19.899C15.6735 20.2028 15.7767 20.4583 15.9838 20.6654C16.1909 20.8725 16.446 20.9753 16.7491 20.9739ZM16.7491 16.6742C17.0537 16.6742 17.3092 16.571 17.5156 16.3647C17.7219 16.1583 17.8248 15.9032 17.8241 15.5993V11.2997C17.8241 10.9951 17.7209 10.74 17.5145 10.5343C17.3081 10.3287 17.053 10.2255 16.7491 10.2247C16.4453 10.224 16.1902 10.3272 15.9838 10.5343C15.7774 10.7414 15.6742 10.9965 15.6742 11.2997V15.5993C15.6742 15.9039 15.7774 16.1593 15.9838 16.3657C16.1902 16.5721 16.4453 16.6749 16.7491 16.6742Z" fill="#005BAA"/>
</svg>
