<svg width="60" height="61" viewBox="0 0 60 61" fill="none" xmlns="http://www.w3.org/2000/svg">
<rect y="0.5" width="60" height="60" rx="30" fill="#FFF7DB"/>
<path d="M30 30.5C28.35 30.5 26.9375 29.9125 25.7625 28.7375C24.5875 27.5625 24 26.15 24 24.5C24 22.85 24.5875 21.4375 25.7625 20.2625C26.9375 19.0875 28.35 18.5 30 18.5C31.65 18.5 33.0625 19.0875 34.2375 20.2625C35.4125 21.4375 36 22.85 36 24.5C36 26.15 35.4125 27.5625 34.2375 28.7375C33.0625 29.9125 31.65 30.5 30 30.5ZM18 42.5V38.3C18 37.45 18.219 36.669 18.657 35.957C19.095 35.245 19.676 34.701 20.4 34.325C21.95 33.55 23.525 32.969 25.125 32.582C26.725 32.195 28.35 32.001 30 32C31.65 32 33.275 32.194 34.875 32.582C36.475 32.97 38.05 33.551 39.6 34.325C40.325 34.7 40.9065 35.244 41.3445 35.957C41.7825 36.67 42.001 37.451 42 38.3V42.5H18Z" fill="#FFD84C"/>
</svg>
