<svg width="24" height="24" viewBox="0 0 24 24" fill="none" xmlns="http://www.w3.org/2000/svg">
<rect width="24" height="24" rx="4" fill="white"/>
<path d="M18.7294 4.79182C18.2222 4.28482 17.5345 4 16.8174 4C16.1003 4 15.4125 4.28482 14.9054 4.79182L9.83772 9.85948C9.77225 9.92475 9.72286 10.0043 9.69344 10.092L8.20296 14.5635C8.16784 14.6685 8.16267 14.7812 8.18802 14.889C8.21337 14.9968 8.26824 15.0954 8.34648 15.1738C8.42471 15.2521 8.52323 15.3071 8.63099 15.3327C8.73874 15.3582 8.85147 15.3532 8.95655 15.3182L13.428 13.8278C13.5161 13.7985 13.5961 13.7491 13.6617 13.6835L18.7294 8.61582C19.2364 8.10867 19.5212 7.42093 19.5212 6.70382C19.5212 5.98671 19.2364 5.29896 18.7294 4.79182ZM17.0994 11.9319C17.1883 13.1449 16.9041 14.3562 16.2848 15.4031C15.6656 16.45 14.7409 17.2825 13.6349 17.7888C12.5289 18.295 11.2946 18.4509 10.0974 18.2355C8.90033 18.0201 7.79774 17.4436 6.93766 16.5835C6.07757 15.7235 5.50113 14.6209 5.2857 13.4237C5.07027 12.2266 5.22615 10.9923 5.73243 9.88627C6.23871 8.7803 7.07116 7.85563 8.11807 7.23637C9.16498 6.61711 10.3763 6.33288 11.5893 6.42182L12.6422 5.36775C11.1331 5.04687 9.5606 5.22248 8.1594 5.86836C6.7582 6.51425 5.60334 7.59581 4.86709 8.95172C4.13084 10.3076 3.85266 11.8652 4.07403 13.3921C4.2954 14.9191 5.00447 16.3335 6.09547 17.4245C7.18646 18.5155 8.60092 19.2246 10.1279 19.446C11.6548 19.6673 13.2124 19.3892 14.5683 18.6529C15.9242 17.9167 17.0057 16.7618 17.6516 15.3606C18.2975 13.9594 18.4731 12.3869 18.1523 10.8778L17.0994 11.9319Z" fill="#005BAA"/>
</svg>
