<!DOCTYPE svg PUBLIC "-//W3C//DTD SVG 1.1//EN" "http://www.w3.org/Graphics/SVG/1.1/DTD/svg11.dtd">
<!-- Uploaded to: SVG Repo, www.svgrepo.com, Transformed by: SVG Repo Mixer Tools -->
<svg width="256px" height="256px" viewBox="-2.4 -2.4 28.80 28.80" id="_24x24_On_Light_Checkmark" data-name="24x24/On Light/Checkmark" xmlns="http://www.w3.org/2000/svg" fill="#005baa" stroke="#005baa" stroke-width="0.00024000000000000003">
<g id="SVGRepo_bgCarrier" stroke-width="0" transform="translate(0,0), scale(1)">
<rect x="-2.4" y="-2.4" width="28.80" height="28.80" rx="0" fill="#005baa" strokewidth="0"/>
</g>
<g id="SVGRepo_tracerCarrier" stroke-linecap="round" stroke-linejoin="round" stroke="#ffffff" stroke-width="1.6799999999999997"> <rect id="view-box" width="24" height="24" fill="#ffffff" opacity="0"/> <path id="Shape" d="M5.341,12.247a1,1,0,0,0,1.317,1.505l4-3.5a1,1,0,0,0,.028-1.48l-9-8.5A1,1,0,0,0,.313,1.727l8.2,7.745Z" transform="translate(19 6.5) rotate(90)" fill="#ffffff"/> </g>
<g id="SVGRepo_iconCarrier"> <rect id="view-box" width="24" height="24" fill="#ffffff" opacity="0"/> <path id="Shape" d="M5.341,12.247a1,1,0,0,0,1.317,1.505l4-3.5a1,1,0,0,0,.028-1.48l-9-8.5A1,1,0,0,0,.313,1.727l8.2,7.745Z" transform="translate(19 6.5) rotate(90)" fill="#ffffff"/> </g>
</svg>