<svg width="34" height="34" viewBox="0 0 34 34" fill="none" xmlns="http://www.w3.org/2000/svg">
<path d="M0 4C0 1.79086 1.79086 0 4 0H30C32.2091 0 34 1.79086 34 4V30C34 32.2091 32.2091 34 30 34H4C1.79086 34 0 32.2091 0 30V4Z" fill="white"/>
<path d="M7.20566 27C6.86405 27 6.57791 26.8843 6.34723 26.6528C6.11655 26.4213 6.0008 26.1351 6 25.7943V24.5887C6 24.2471 6.11574 23.9609 6.34723 23.7303C6.57872 23.4996 6.86486 23.3838 7.20566 23.383C7.54646 23.3822 7.833 23.498 8.06529 23.7303C8.29758 23.9625 8.41292 24.2487 8.41131 24.5887V25.7943C8.41131 26.1359 8.29557 26.4225 8.06408 26.654C7.8326 26.8855 7.54646 27.0008 7.20566 27ZM12.0283 27C11.6867 27 11.4005 26.8843 11.1699 26.6528C10.9392 26.4213 10.8234 26.1351 10.8226 25.7943V19.1632C10.8226 18.8216 10.9384 18.5355 11.1699 18.3048C11.4013 18.0741 11.6875 17.9584 12.0283 17.9576C12.3691 17.9568 12.6556 18.0725 12.8879 18.3048C13.1202 18.5371 13.2355 18.8232 13.2339 19.1632V25.7943C13.2339 26.1359 13.1182 26.4225 12.8867 26.654C12.6552 26.8855 12.3691 27.0008 12.0283 27ZM16.8509 27C16.5093 27 16.2232 26.8843 15.9925 26.6528C15.7618 26.4213 15.6461 26.1351 15.6453 25.7943V21.5745C15.6453 21.2329 15.761 20.9468 15.9925 20.7161C16.224 20.4854 16.5101 20.3697 16.8509 20.3689C17.1917 20.3681 17.4783 20.4838 17.7105 20.7161C17.9428 20.9484 18.0582 21.2345 18.0566 21.5745V25.7943C18.0566 26.1359 17.9408 26.4225 17.7093 26.654C17.4779 26.8855 17.1917 27.0008 16.8509 27ZM21.6735 27C21.3319 27 21.0458 26.8843 20.8151 26.6528C20.5844 26.4213 20.4687 26.1351 20.4679 25.7943V19.7661C20.4679 19.4245 20.5836 19.1383 20.8151 18.9076C21.0466 18.6769 21.3327 18.5612 21.6735 18.5604C22.0143 18.5596 22.3009 18.6753 22.5332 18.9076C22.7655 19.1399 22.8808 19.4261 22.8792 19.7661V25.7943C22.8792 26.1359 22.7635 26.4225 22.532 26.654C22.3005 26.8855 22.0143 27.0008 21.6735 27ZM26.4962 27C26.1546 27 25.8684 26.8843 25.6377 26.6528C25.4071 26.4213 25.2913 26.1351 25.2905 25.7943V14.9434C25.2905 14.6018 25.4063 14.3157 25.6377 14.085C25.8692 13.8543 26.1554 13.7386 26.4962 13.7378C26.837 13.737 27.1235 13.8527 27.3558 14.085C27.5881 14.3173 27.7034 14.6034 27.7018 14.9434V25.7943C27.7018 26.1359 27.5861 26.4225 27.3546 26.654C27.1231 26.8855 26.837 27.0008 26.4962 27ZM19.2622 16.1189C18.9407 16.1189 18.6341 16.0587 18.3423 15.9381C18.0505 15.8175 17.7845 15.6467 17.5442 15.4257L14.4396 12.3211L8.04962 18.7111C7.80849 18.9522 7.52234 19.068 7.19119 19.0583C6.86004 19.0487 6.57349 18.9229 6.33156 18.681C6.11052 18.4398 6.00522 18.1537 6.01567 17.8225C6.02612 17.4914 6.14146 17.2149 6.3617 16.993L12.7215 10.6332C12.9627 10.3921 13.2291 10.2164 13.5209 10.1063C13.8127 9.99621 14.1189 9.94075 14.4396 9.93995C14.7603 9.93914 15.0718 9.9946 15.374 10.1063C15.6762 10.2181 15.9374 10.3937 16.1577 10.6332L19.2622 13.7378L25.6522 7.34779C25.8933 7.10665 26.1799 6.99091 26.5118 7.00056C26.8438 7.0102 27.1299 7.13599 27.3703 7.37793C27.5913 7.61906 27.697 7.9056 27.6874 8.23756C27.6777 8.56952 27.562 8.84561 27.3401 9.06585L20.9803 15.4257C20.7593 15.6467 20.498 15.8175 20.1966 15.9381C19.8952 16.0587 19.5837 16.1189 19.2622 16.1189Z" fill="#005BAA"/>
</svg>
